<svg width="216" height="222" xmlns="http://www.w3.org/2000/svg"><g fill="#F4F4F4" fill-rule="nonzero"><path d="M108.46 2.68c.46-1.38.921-2.302 2.303-2.302 1.38 0 1.839.921 2.3 2.301 0 .92-.461 1.84-1.38 2.301-1.38 0-2.762-.46-2.762-1.84 0-.002 0-.46-.46-.46 0 1.38-.92 2.3-2.301 2.3-.92 0-2.301-.92-2.301-1.84-.921.46-.921 2.3-2.301 2.3-.92 0-2.3-.46-2.3-1.84 0-.92-.46-2.761 1.38-2.761.919 0 1.84.46 2.76 1.38.46-.92.921-1.84 2.301-1.84 1.38-.462 2.761.458 2.761 2.3zm9.205-.922c.46.921.46 1.84 0 2.762-.46.92-1.842 1.38-2.761.46-.922-.46-1.38-1.84-1.38-2.761.92-2.302 3.68-1.842 4.141-.46zm-19.329.921c0 .92 0 2.301-1.381 3.22-1.38 0-2.3-.919-3.22-1.84 0 1.38-.921 2.3-2.301 2.761-.92 0-2.301-.46-2.301-1.84 0-.92.46-2.761 1.84-2.761.921-.46 2.301 0 2.762.92.459-.92.92-1.38 1.84-2.3 1.38-.002 2.3.459 2.761 1.84zm24.39-.462c.46.921.92 1.842 0 2.762-.46 1.38-1.84 1.38-2.761.92-.92-.46-.92-1.841-.92-2.302.46-.92 0-2.3 1.38-2.76 1.381 0 2.3.46 2.3 1.38zm5.522 1.382c.46 1.38-.459 2.3-.92 2.76-1.84.461-2.76-.46-3.22-1.379-.461-1.38 0-2.761 1.38-3.222 1.38 0 2.303.46 2.76 1.84zm5.065 1.381c0 .92-.46 1.84-1.38 2.3-1.38 0-2.302-.919-2.761-1.84-.46-1.38.92-2.76 1.839-2.76.92.458 1.84.919 2.302 2.3zm-44.642 0c0 1.84-.92 2.761-2.3 2.761-.92 0-1.841-.46-2.762-1.38-.46.92-.92 2.301-1.84 2.301-1.38.46-1.842 0-2.762-.46-.46.92-.92 2.302-2.3 2.302-1.38.459-1.84-.46-2.762-1.382-.46-.92 0-1.84.92-2.76.46-.92 1.84-.92 2.761-.461l.92.92c.46-1.38.92-2.3 1.841-2.76 1.38-.461 2.301.459 3.22 1.38.461-.921.92-2.301 1.841-2.762 1.383.46 2.763.92 3.223 2.301zm49.241.46v2.301c-.92.92-2.3 1.38-3.219.46-.922-.46-1.38-2.3-.46-3.221.918-1.381 3.221-1.381 3.68.46zm5.065 3.22c.46-.919 1.38-1.38 1.842-1.84 1.38-.46 2.3.46 2.76 1.38.46 1.84-.46 3.222-1.84 3.682-1.38 0-2.3-.92-2.762-1.841 0-.46.46-1.38 0-1.84-.46.919-.922 1.84-1.842 1.84-1.38.46-2.3 0-2.761-1.38-.92-1.38.922-2.761 1.842-3.22 1.839-.461 2.76 1.38 2.76 3.22zm-69.493.461c0 .92-.46 1.84-.92 2.761-.92.46-2.3.46-3.222 0-.92-.92-.92-2.3-.459-3.221 1.38-1.38 3.681-1.38 4.6.46zm79.617 1.381c.46 1.38 0 2.762-1.842 3.22-.46.46-1.38 0-1.841-.458-.92-.46-1.38-1.84-.92-3.222.46-.92 1.38-.92 1.842-1.38 1.381-.001 2.3.92 2.761 1.84zm-84.678 1.382c.459 1.38-.46 2.3-1.842 2.761-.92.46-2.3 0-2.761-.92-.46-1.38.459-2.302.92-3.221.92-1.383 3.221-.462 3.683 1.38zm89.281 1.38c0 1.38-.46 2.761-1.842 2.761-.922.46-1.841-.46-2.302-1.38 0-1.38 0-2.3.922-3.222 1.84 0 3.222.46 3.222 1.84zm-94.345.92c0 .92-.92 1.841-1.841 2.3-4.142-2.761-2.301 5.523-6.444 1.842-1.38-.921-.92-2.301-.459-3.682 1.38-2.301 4.602 1.84 4.602-1.84a2.275 2.275 0 0 1 4.142 1.38zm99.407 1.841v1.38c.92-.46 2.761-.92 3.68-.46.923.92 1.38 1.84.923 3.221.92 0 2.3-.92 3.22 0 .921.921 1.38 2.301.921 3.682-1.38.921-2.302 1.38-3.683.46-.46-.92-.92-1.84-.92-2.762-.92-.459-2.3.46-3.221-.459-.92-.92-1.38-2.3-1.38-3.222-.46.921-1.842.921-3.22.46-.922-.46-1.38-1.84-.922-3.22.921-2.302 4.14-1.382 4.602.92zm-57.988-1.842c-.459 2.301-2.3 5.523-3.221 7.365 0 .92 0 2.3.92 4.601-.92.46-1.84.92-2.76.92-.92-.92-.92-3.681-1.38-4.602-2.302-3.222-5.984-5.522-5.984-5.983.92-.459 1.84-.92 2.762-.459.92.92 3.682 2.761 4.601 4.141.921-1.84 1.381-3.221 1.84-5.522.921-.46 2.303-.46 3.222-.46zm-50.623 4.143c.46 1.38-.46 2.3-1.38 2.761-3.681-1.842-.92 3.22-4.143 3.22h-2.3c-.461 1.38.46 3.222-1.38 3.683-1.382 0-2.301 0-2.763-.46.46.92 0 3.681-1.84 4.142l-2.301-.46c.46 1.84-.46 2.76-1.382 3.68-.92.46-2.3.46-3.22-.459-.921-.46 0-2.3-.46-2.761.46-.921.919-1.38 1.84-1.84h2.3c0-.92.46-3.222 1.841-3.222.921-.46 1.84 0 2.761.92-.459-1.38-.459-4.142 1.38-4.602h2.762c-.46-.921-.46-2.301.46-3.222.92-.921 2.3-.46 3.222 0l.46.46c.46-.92-.46-3.221 1.38-3.221 1.383-.46 2.763.46 2.763 1.38zm35.437 0c0 .92-2.761.92-4.141 1.84.46 1.84 1.84 5.523 2.761 8.744-.92.46-1.38.92-2.761.92-.921-3.222-1.38-6.904-3.222-9.205l-3.682 1.38c-.46-.92-.46-1.38-.46-2.3 3.683-1.38 7.364-2.301 11.046-2.762l.459 1.383zm25.77 1.38c.461.92 0 1.381-.458 1.84-.922 0-1.38-.459-1.842-.92 0-.46-.46-1.38.46-1.841.921.001 1.84.001 1.84.92zm11.047 3.222v1.841c.92 1.38 1.38 2.3 3.22 2.761 1.38 0 2.76 0 3.683-1.38.92-1.38 1.38-2.762.92-4.602-.92-3.22-4.604-3.22-6.903-1.38-.46.92-.92.92-.92 3.221h-2.764c0-3.221.46-4.142 2.303-5.522 2.3-1.84 6.442-1.84 9.203.46 1.38 1.84 2.302 4.602 1.38 7.363-.92 2.3-3.22 4.143-5.98 4.143-2.762 0-5.983-1.84-6.906-4.602v-2.3h2.764v-.003zm-52.925-1.38c.92 4.14 3.221 7.364 4.603 11.045-.46.46-1.38.92-1.84.92-2.302-3.221-2.302-7.364-5.523-10.125.459-1.381 1.84-1.381 2.76-1.84zm78.695 4.14c.46.922 0 1.842-.92 2.302-1.841-.921-3.68-2.762-5.522-3.22l-.92 2.299c1.38.92 2.3 1.38 4.142 2.3 0 .921-.46 1.38-.923 2.301-1.38-.46-2.3-.92-3.68-1.84-.46 0-.46-.46-.92-.46-.922 1.38-1.842 3.682-2.302 4.14l-2.3-.919c2.3-3.68 3.681-7.363 5.061-11.045 2.763.922 5.065 3.223 8.284 4.143zm23.934-.919c0 1.38 0 3.22-1.841 3.22-.923.46-2.303 0-2.762-1.38-.46-1.38.46-2.76 1.84-3.681 1.38 0 2.302.92 2.763 1.841zM67.502 27.07c-2.3.92-5.523 1.38-5.983 4.603 2.761 1.38 5.522-2.3 8.744-.46 1.84 1.38.92 3.221.46 5.062-1.38 2.3-4.142 3.221-7.364 3.682-.46-.46-.92-1.38-.92-2.301 2.3-.46 5.522 0 6.902-2.761 0-.92-.46-1.84-1.38-1.84-3.222 0-6.902 4.14-8.744 0-.46-4.142 2.761-6.444 5.983-7.824 1.381-.001 1.841.918 2.302 1.84zm113.21 1.38c0 1.381-1.38 2.761-2.3 3.222-1.38 0-2.299-.46-2.76-1.84-.46-.92 0-2.302 1.38-3.222 1.38-.46 2.76.46 3.68 1.84zm4.143 3.682c.46 1.84-.92 2.761-1.84 3.222-1.38.459-2.301-.46-2.76-.921-.46-1.84-.46-3.682 1.38-4.141 1.38-.46 2.76.459 3.22 1.84zM33.906 36.273c.46 1.38-.92 2.762-2.3 3.683-.46 0-1.382 0-1.84-.46.458.92.458 2.301 0 3.681-1.38.46-2.762.92-3.683.46-.92-.92-.92-2.3-.92-3.681.92-1.38 3.222-1.38 4.602-.921-.92-.92-.46-2.3-.46-3.681.92-1.381 4.14-1.381 4.601.92zm154.17 0c.461 1.38-1.38 2.301 0 3.222 1.38-.46 2.762.46 3.222 1.38.46.92-.46 1.38-.46 2.3 1.38.461 2.761 0 3.222 1.841 0 .92-.923 2.301-2.303 2.762-.92 0-1.38-.92-1.839-1.38l.46-2.301c-.92 0-2.3 0-3.22-.92-.922-.46-.46-2.3-.46-3.221-1.38-.46-2.761 0-3.68-1.84-.461-1.38.919-2.762 1.838-3.223 1.379 0 2.76 0 3.22 1.38zm-28.99 0c.458 1.38-.461 2.301-1.38 2.762-.923.46-1.383-.92-1.842-1.84 0-.922.92-1.38 1.38-1.841 1.38 0 1.38.92 1.841.92zM50.473 38.115c-.46.46-1.842 1.84-1.842 2.3.921.92 1.381 1.841 2.301 2.302 1.38-.92 2.761-2.301 3.222-4.141 0-.921-1.38-1.38-2.762-.921-.46.46-.46.46-1.38.92l-1.38-1.84c1.38-.92 2.3-1.38 3.681-1.842 1.38 0 3.222 0 4.143 1.842.92 1.84-.92 4.602-.92 4.602 1.38-.46 5.523.46 5.062.92-.46.461-.92 1.841-1.38 2.301-.46 0-3.221-1.38-5.062-.92 0 .46-.92 0-1.38 1.38.46.92 2.762 1.38 2.301 2.302l-2.3 2.3c-1.841-3.221-5.063-5.522-7.824-8.283.46-1.38 2.761-3.682 4.141-5.062l1.379 1.84zm43.72 2.3l-.921.461c-5.982 0-11.966 1.84-17.487 1.38 0-.459-.92-.92-.46-1.38 6.444 0 12.426-1.841 18.869-1.38v.92h-.001zm80.078 2.762c.92 1.38 4.14 3.682 1.841 5.062l-.922.92c-.92-.92-.46-2.301-.92-2.761-1.38-1.84-3.221-3.222-5.522-2.301-1.38.92-2.302 1.38-2.761 2.761-.46 2.3.459 3.68 1.839 5.062.46.921 2.302 1.38 2.761 1.842-1.38 2.3-1.38 1.84-1.839 1.84-4.141-2.761-5.522-5.983-5.063-8.284.46-2.3 1.841-4.603 4.14-5.522 2.303-.92 4.604-.46 6.446 1.381zm-31.757 0c.46.46 1.38.92.922 1.38-6.444.46-13.347-.92-19.792-.92-.92-.46-.459-.92-.459-1.38 5.985-.46 13.807 0 19.33.92zm-47.86 0c-12.427 4.602-25.313 9.205-37.738 13.347-.46 0-1.38.46-1.38-.46.46-1.84 3.22-1.381 4.602-2.3 11.045-5.063 22.55-8.745 34.516-11.967v1.38zm-68.573 1.84c.46 1.38 0 2.762-.92 3.222-.92.46-1.84.46-2.3.46-.461.92 1.38 2.302 0 3.682-.922.92-1.842.46-2.762 1.38.46.92.46 2.302-.46 3.682-.46.459-1.38.92-2.76.92.46 1.38.92 2.76-.46 4.14-.46.921-1.38.46-1.84 1.382.46 1.38.92 2.761.46 3.68-.46 1.841-4.602.461-2.3 2.762.46 2.3-1.38 3.68-2.762 4.601.92.46.92 1.84.46 2.762-.46.92-1.38 1.84-2.301 2.3 1.38.461 1.38 2.301.92 3.222-.46.921-1.841 1.38-2.762 1.84.92.92 1.38 1.841 1.38 2.762-.46 1.38-.46 2.761-2.3 3.222-1.382 0-2.302-1.38-2.762-2.762.46-1.38.92-3.22 2.761-3.68-.46-.92-1.381-1.84-.92-3.222.46-1.38 1.38-1.84 2.762-2.301-1.84-.92-1.381-2.761-.46-4.143l1.38-.92c-.461-1.379-.92-2.76-.461-4.14.92-.921 1.84-1.84 2.761-1.38 0-1.38-.92-2.762.46-4.143.922-.92 2.762-.92 1.841-2.3-.92-.46-.46-1.841 0-2.762.46-2.3 5.523 0 2.761-2.761-.459-1.842.46-2.761 1.84-3.682l1.38-.46c0-.461-.919-2.302 0-3.222.922-.92 1.841-.92 3.222-.92-.92-.92-.92-2.761 0-3.682.46-.92.921-1.38 1.84-1.38 1.382.001 2.302.92 2.302 1.842zM42.189 46.4v.46c-2.3 1.84-3.681 3.222-4.602 5.523.921.92 1.84 1.381 2.301 1.381l2.761-4.142c.46 0 1.38.92 1.84 1.84-1.38 1.38-3.22 3.22-2.3 3.682l1.381 1.84c1.381-1.84 3.68-4.14 4.602-5.982.92.46 1.84.92 1.38 2.3l-5.983 6.904c-2.761-2.302-5.983-5.062-9.665-6.443 1.38-3.222 3.682-5.523 6.443-8.285.462-.46 1.383.461 1.842.922zm155.094 2.761c0 1.38-.923 2.301-1.842 2.301-.92.46-1.842 0-2.302-.92 0-.92-.46-1.841.46-2.302.922-1.84 3.684-.92 3.684.921zm3.219 5.062c-.46.46 0 1.38-.92 1.84 1.38.461 3.68.461 3.68 2.762 0 .92-.919 1.381-1.38 2.3.461.922 1.843 0 2.762.922 3.222 1.38-2.3 5.062 2.302 4.601.92.92 1.38 2.301.92 3.222 0 .92-1.38 1.38-.92 2.3.46 0 1.38 0 1.84.46.922.92.922 2.3.46 3.68l-.92.922c.92.46 2.762.92 2.762 2.76 0 .922-.46 1.841-.92 2.302.46.92 2.3 1.38 2.3 2.761 0 .92-.46 1.84-1.38 2.761.92.921 2.3 1.38 2.76 2.762 0 .92-.919 2.3-2.299 2.76-1.38 0-2.302-.46-2.764-1.84.46-1.38 0-2.76 1.383-3.223-.922-.459-2.302-.92-2.302-1.84-.46-1.38.46-2.3.92-3.682-.92 0-2.762-.92-2.762-2.761 0-.92.922-1.38.922-2.301-.922-.46-1.841-1.382-2.302-2.301-.459-1.84 2.302-4.141-.92-4.141-.919-.92-.919-2.762-.46-3.682.922-1.84-2.3-.92-2.3-2.762-.46-.92 0-2.3.461-3.22-.922-.46-2.302 0-3.222-1.38-.92-1.381 1.38-2.761 0-3.682-1.38.459-2.3-.46-2.76-1.38 0-1.38.46-2.761 1.84-3.222 1.839-.459 2.76.922 3.219 2.302zM31.605 57.444c1.84 3.68 4.142 6.902 6.904 9.665-.46.92-.92 3.222-1.38 3.222-3.682-.46-8.744-.46-12.886 0 0-1.382.459-2.762 1.38-3.222 2.76 0 6.443.46 8.742-.46-.92-2.301-2.76-4.602-4.14-6.904 0-.921.46-2.301 1.38-2.301zm148.188 3.222c.46-.46 1.38-1.84 1.842-2.301-1.38 0-2.303 0-3.222.46.459.92.92 1.84 1.38 2.301l.92-.92 1.841 1.84c-1.842 1.841-2.761 4.142-4.141 6.444 0 .46-.92-.92-1.842-1.38 0-1.38 1.842-4.142 1.842-4.142-1.842-1.38-1.842-2.76-2.761-3.222-1.38 0-2.762 1.38-3.222.92l-.92-2.76c3.681-1.38 7.822-1.38 11.045-3.222 1.38 1.381 2.3 2.3 2.762 3.682-.92.921-2.3 2.761-3.222 3.682l-2.302-1.382zm-83.759 1.84c-1.38.46-3.222.46-4.602.46-.46-.92.46-1.38.921-1.38 1.38 0 2.762-.461 3.681.92zm-8.284.46c-.92.46-1.84.921-2.761.46-.46-.92.92-1.38 1.38-1.38.462.46 1.842-.46 1.381.92zm14.727 1.84c-1.38-.46-4.14-.919-4.14-2.3 1.38 0 3.68.46 4.14 2.3zm17.489-1.84v.46c-2.3.461-4.141 1.38-6.442 1.841l-.46-.46c1.84-1.84 4.14-2.761 6.902-1.84zm5.063 0c0 .46-.46.921-.922.921-.46.46-.92-.46-1.839 0v-1.381c.92.46 1.84 0 2.761.46zm-42.801 0c.46 1.84-1.38.921-2.301 1.38-.92 0-2.761.46-3.68-.459v-.46c1.84-.46 4.14-.46 5.98-.46zm48.782.921v.46c-1.38.46-1.84 0-3.22-.46.458-.92 2.762-.92 3.22 0zm10.586 0c-.46.92-1.38.92-2.3.92 0 0-.46 0-.46-.46s.46-.46.92-.92c.46.46 1.84-.46 1.84.46zm-4.603 0c.46.92-.46.92-.92 1.38-.922-.46-2.761 0-2.761-1.38.92-.46 2.761-.46 3.68 0zM95.115 66.65c-.46.46-1.842.46-2.762 0 0-.92.46-.92.92-.92.92-.001 1.842-.001 1.842.92zm-5.523-.46c.46 1.84-1.38.46-1.84.46h-.46c.458-.921 1.84-1.382 2.3-.46zm-4.143.92c-.46.46-.46 0-.92 0 0 0 1.841-1.381.92 0zm34.058 0c-1.842.92-4.144 1.38-5.983 1.38-.46 0-.46-.46-.46-.92 1.841-.46 4.14-1.38 6.444-.92v.46h-.001zm5.06.46c-.46.46-2.299.46-2.76 0-.461 0-.92-.46-.461-.92 1.38.46 2.761 0 3.222.92zm17.029 0c-.46.92-1.38 1.38-2.3.92-.46-.46-.46-.92 0-1.38.92.46 2.3-.46 2.3.46zm-5.064 0c0 1.38-1.38 1.38-2.3.92-.46 0-.46-.46-.46-.92.921 0 2.301-.46 2.76 0zM191.3 69.87c-.923.92-2.303 1.38-3.222 1.84-1.842.92-3.68 1.841-5.06 2.762.458 2.3 1.838 4.602 2.76 6.443-.46.46-1.38.92-2.302.46-.459-3.222-2.761-5.983-3.68-9.204 3.68 0 6.442-2.761 9.663-4.603 1.379 0 1.379 1.381 1.84 2.302zm-60.748-1.381c-.922 0-2.302.46-3.222-.46 0-.92 1.842-.46 2.3-.46.46.46.922.46.922.92zm-54.766 2.3v6.444c2.3-.46 3.682 0 5.983-.46 0-2.301 0-5.523-.46-8.284h-5.523v2.761h-1.84l.458-4.141c1.84-.46 5.983-.46 8.284-.92.46 0 .92 11.965.46 12.425l-9.204.46V71.25l1.842-.46zm14.727-.919v.46h-1.381c-.46-.46 0-.92.46-.92s.92 0 .92.46zm5.06.46c0 .92-1.38.46-1.84.46l-.46-.46c0-1.38 1.842-1.38 2.3 0zm7.365 2.3c-1.84 0-3.68-.459-5.062-1.38 1.84-.92 4.141 0 5.062 1.38zm20.707-1.38c0 .46-.92.46-1.377.46-.46 0-.46-.92 0-.92.458 0 .92 0 1.377.46zm17.49 0c0 .921-1.38.921-1.839.921-.46 0-1.383.46-1.842 0 0-.92.92-1.381.92-1.381.922 0 1.842-.46 2.761.46zm-11.964.921h-1.842v-.92c.462.46 1.381 0 1.842.92zm5.98 0c0 .46-.46.46-.92.46-.92 0-1.841.458-2.3-.46.46-.46 2.302-1.381 3.22 0zM33.446 77.233c.459.92-.46 2.301-.921 3.222h-.92c-2.76-1.84-5.982-3.682-9.665-4.143-.459-.92.46-2.3.921-3.221 3.22 1.84 6.903 3.221 10.585 4.142zm61.208-2.761c-.92.46-1.84 0-3.222 0v-.46c.46-1.84 2.301-.46 3.222-.46v.92zm-5.983-.92c-.46.458-.92.458-.92.458 0-.459.46-.459.92-.459zm13.346 1.84v.46c-1.84-.46-3.22-.46-5.062-1.38-.46-.46.46-.46.92-.92 1.38.46 3.222.46 4.142 1.84zm41.88-.92c.46.46-.46.92-.92.92s-1.38 0-1.38-.92c.458-.46 1.84-.92 2.3 0zm-21.171.92c-.92.46-1.84.92-2.761.46-.46-.46-.46-.92 0-1.38 1.38.46 2.76-.46 2.76.92zm5.065 0c-.923.46-1.842.46-2.762 0 .92-.92 1.84-.92 2.3-.46.462 0 .462.46.462.46zm11.505-.46c.46.46 0 .46 0 .92-.922 0-2.302.46-3.222-.46.458-1.38 1.838-.46 3.222-.46zm-5.525.46c0 1.38-2.3.92-2.761.92-.92-1.38 1.841-1.38 2.76-.92zm-44.179 2.302c-1.38 0-3.222.92-4.141-.46 1.38-.461 3.68-.922 4.141.46zm6.442 0v.459c-1.38.46-2.761 0-3.68-.46 0-.46.458-.92.919-.92.92.46 2.3 0 2.761.92zm5.983 1.38c-.92.459-2.3 0-3.68-.46.46-1.38 2.3-.461 3.68 0v.46zm20.251 0h-1.842c-.46-.46 0-.921.46-1.38l1.38.459v.92h.002zm5.523-.46c0 .46-.46.919-.923.919-.459 0-1.38 0-1.839-.46 0-.92.92-.46 1.38-.92.46 0 .92 0 1.382.46zm5.522.92c-.922.46-1.842.46-2.761 0l-.922-.46c.922-1.38 2.302-.46 3.221-.46.462.46.462.46.462.92zm5.521-.92c.46.46-.46.919-.922.919-.92-.46-1.839 0-2.761-.46.462-1.38 2.761-.46 3.683-.46zm4.603 2.301c0 .46-.46.92-.922.92-1.38 0-2.761.92-3.219-.46 1.377-.46 3.22-.92 4.141-.46zm-48.783 0c0 2.762-2.761.46-4.141.92 0-1.84 2.3-.92 3.68-.92 0 .46.461 0 .461 0zm-6.904.46c0 .46-.459.46-.459.46-.92 0-.92 0-.92-.92.46-.46.92 0 1.38.46zm-4.601.46c-1.38 1.38-4.142.46-5.983 0l.46-.46c1.84 0 4.143-.46 5.523.46zm-52.464 3.222c-.46.92-.46 1.84-.921 2.76 0 0-3.222.922-4.141 1.841-1.38.92-3.683 1.84-5.063 3.222 2.301 0 5.523.92 7.824.92.459.92 0 2.3-.46 3.221-3.222-1.38-7.364-1.84-11.046-1.84-.459-.92 0-1.84 0-3.22 2.301-1.841 6.444-3.683 9.205-5.523-1.84-1.38-5.062-1.84-7.363-1.84 0-.92 0-2.301.92-3.222 3.221 2.3 7.363 2.3 11.045 3.68zm72.253-2.301c0 .46 0 .92-.46.92-1.84-.92-3.68-.46-5.522-1.38 0-1.38 1.842-.92 2.762-.46l3.22.92zm21.17-.46c-.92.458-2.762.458-3.682 0 .46-1.38 2.762-.922 3.681-.461.46 0 0 0 0 .46zm6.444 0c-.922.919-2.302.458-3.222 0 .46-.922 2.76-1.38 3.222 0zm5.521-.461c.46.46-.46.92-.922.92-.92 0-1.84 0-1.84-.92.46-.46 1.84-.46 2.762 0zm59.828 1.381v1.38c-3.221 1.38-6.905 1.84-10.125 3.681-.922-.92-1.38-2.3-.922-3.22 3.683-.46 6.902-1.84 10.586-3.222l.461 1.381zm-53.846.921c0 .46.46.46 0 .46-.46.92-1.38.92-2.3.46v-.92c.46-.46 1.84 0 2.3 0zm-48.782.92v.46c-.46 0-1.84.46-2.301-.46.46-.46 1.84-.92 2.3 0zm27.614.46c-.46.46-1.38 0-1.842 0l-.46-.46c0-.46 1.38-.46 2.302-.46v.92zm4.6-.46c0 .92-.92.92-1.38.92-.92 0-1.38 0-1.38-.92.46-.46 1.84-.92 2.76 0zm11.045-.46c.46.92-.459.92-1.38 1.38-.459 0-.92-.46-1.38-.46.46-.92 1.84-.92 2.76-.92zm-48.782.46c-1.84 1.38-5.981.92-8.283.92-.46-.46 0-.92.459-.92 2.3 0 5.062-.46 7.364-.46l.46.46zm42.802 0c0 .92-.46.92-.922.92-.46 0-.92 0-.92-.46 0-.92.92-.46 1.842-.46zm-54.306 0v.92c-.46 0-1.84.46-1.84-.46-.46-.92 1.38-.92 1.84-.46zm25.771 1.38c-1.84.46-3.68-.46-5.522-.92.92-1.38 3.22-.46 5.062 0l.46.92zm41.42 1.38c-.46.922-1.841.922-1.841.46l.459-.92c.46 0 .922 0 1.382.46zm-21.63.922c-.461.459-2.3.459-2.762 0-.46-1.382.92-.921 1.38-1.382.462.46 1.843.46 1.381 1.382zm12.886-.921c0 .92-.922 1.38-1.38.92-.46 0-1.38.46-1.842 0 0-.92 1.38-.92 1.842-1.38.458 0 .92.46 1.38.46zm4.603 0c.46.92-.46.92-.922 1.38-.46-.46-1.842 0-1.38-.921.46-.92 1.84-.92 2.302-.46zm-10.586.92c-.92.46-2.3.46-3.68 0 0 0-.923-.92 0-.92 1.38.459 3.218-.46 3.68.92zm-40.96 0c0 .46-.459.46-.459.46-.46 0-1.38 0-.92-.46.46 0 .92-.92 1.38 0zm5.983 0c-.92.46-1.84.92-2.3.46-.461 0-.92-.46-.461-.46.92-.461 2.3-.92 2.761 0zm-18.868 0h-.46v-.46c0-.001.92-.001.46.46zm8.744 0c0 .46-.46.92-.92.92-1.84 0-3.682 0-5.522-.46l.46-.921c2.3 0 4.142-.46 5.982.462zm18.868 1.38c-1.84 0-4.601-.46-6.443-.92.46-1.84 2.761-.46 4.143-.46.46.46 1.84.46 2.3 1.38zm96.645 5.063v5.062c0 .92-1.38.92-2.3.92 0-2.301 0-5.063-.92-6.903-.922 0-1.841 0-2.302.46-.46.92 1.38 3.681.923 5.061 0 0-1.383.46-2.303.46 0 0 0-2.3-.46-3.682 0-.92 0-1.38-.46-1.38l-4.14.46c-.46-.46 0-1.38 0-2.3 3.219-.92 7.364-1.38 10.583-2.761l1.379 4.603zm-77.316-3.22c-.92.459-2.3 0-3.221 0v-.921c.922 0 2.76-.921 3.221.92zm5.523 0c-.46.919-1.38 0-2.3 0 0-.461.46-.921.92-.921.46.459 1.842 0 1.38.92zM6.753 93.34c.92 2.3-4.602 2.76-.921 4.601.46 1.84-.92 3.222-2.3 4.143 1.38.92 2.3 1.84 1.84 3.221l-1.84 1.84c1.38.92 2.3 2.76 1.38 4.14-.46.923-.922.923-1.841 1.383.92.92 1.84 1.38 2.3 2.3 0 1.38-.46 2.761-1.84 3.221h-.459c1.38.46 2.3 1.38 2.3 2.762l-.919 2.3c.46.46 1.38.919 1.84 1.84 0 1.38-.46 2.3-1.38 3.22.92.46 2.302 1.38 2.302 2.764 0 .92-.921 2.759-1.84 2.759-1.382 0-2.302 0-3.223-1.378-.46-1.38.46-3.222 1.84-3.683-.919-.46-2.76-.92-2.76-2.3-.46-2.302 2.76-3.221-.46-4.603-.46-1.38.46-3.221 1.84-3.68-.919-.461-1.84-.923-2.3-2.303 0-1.38.92-2.3 2.3-3.219-.919-.46-1.84-.922-2.3-2.302 0-1.381.92-2.3 1.84-3.222-.92-.46-1.84-1.38-1.84-2.3 0-1.38.92-2.762 2.3-3.222-1.38-.92-1.84-2.301-1.38-4.141l1.841-1.38c-.92-.921-1.84-2.762-.92-4.142 1.38-1.38 3.679-.461 4.6 1.38zm125.638-1.38l-.46.459c-.46 0-.921-.46-1.38-.46 0-.92 1.38-.92 1.84 0zm-52.464 0v.919c-1.84 0-4.141 0-5.982-.46v-.921c1.84 0 4.142 0 5.982.461zm7.823.459c-1.38.92-3.68.46-5.062 0l.46-.921c1.38.92 3.683-.92 4.602.92zm4.603-.46c-.46.92-1.381.92-2.3.46 0-.46 0-.921.46-.921.92.461 1.84-.46 1.84.461zm45.101 0c0 .46-.46.92-.922.92-.459 0-1.839 0-1.839-.92s1.84-.461 2.761 0zm5.061 0c0 .92-.92.92-1.842.92l-.459-.46c.46-1.38 1.382-.921 2.301-.46zm-40.498.92v.92l-6.902-.92c0-.46.459-.92.92-.92 1.84-.461 4.142 0 5.982.92zm112.294 3.222c0 .92-.46 2.3-1.38 2.76-1.38 0-2.762 0-3.222-1.38 0-1.38.46-2.3 1.38-3.22.918 0 3.222 0 3.222 1.84zm-92.965-.921c-.46.92-1.84.46-2.3.46-.46-.46 0-.92.46-.92s1.84 0 1.84.46zm5.983 0c0 .92-.92.46-1.842.46h-.92c0-1.84 2.301-.92 2.762-.46zm-40.959 0c0 .92-.459.92-.92.92-2.3 0-4.6.46-6.443 0v-.92c2.3 0 5.062-.92 7.363 0zm45.562 0v.46h-1.38c-.46-.46.459-.46.92-.92 0 0 .46 0 .46.46zm-40.96.46v.46h-1.84l-.46-.46c.92-.46 1.84-.92 2.3 0zm47.862.46c-.922.46-2.302.46-3.221 0h-.46c.921-1.84 2.76-.46 3.22-.46.461 0 .461.46.461.46zm4.603-.46c-.46.92-.46.92-1.841.92 0-.46-.46-.46 0-.92.92-.46 1.38-.92 1.841 0zm-67.19.46c-.461.46-1.841.46-2.302 0l-.46-.92c.92.46 2.3-.46 2.761.92zm25.31.461v.46c-2.76 0-4.602-.46-6.903-.92 1.84-1.382 4.602-.46 6.903.46zm19.789 1.84v.46c-.92 0-2.3.46-2.761-.46.461-.92 1.841-.46 2.76 0zm5.522.921c-.459 0-1.839 0-2.3-.459.461-1.381 2.76-.922 2.3.46zm-49.702-.92c.46.919-.46.919-.92.919-.92 0-3.222.46-2.761-1.38l3.68.46zm9.665.46c0 .92-1.38.92-1.84.92-1.841-.461-3.221.46-5.523-.461l.459-.92c2.3.46 4.602-.46 6.904.46zm46.482.46c-.46.921-1.842.46-2.302 0 0-.459-.46-.92 0-.92.92 0 1.84 0 2.302.92zm-42.8 0c-.46.46-.921 0-1.381 0v-.92c.46.46.92 0 1.38.92zm49.703-.46c0 .92-.46 1.38-1.38 1.38-.46 0-1.842 0-2.303-.921.46-.92 2.301-.46 3.683-.46zm74.552 2.3c.46 1.38-.459 2.762-1.839 3.222l-.46.46c1.38.461 2.761 1.38 2.761 2.762 0 .92-1.38 1.84-1.842 2.761.46.46 1.842.919 1.842 2.303.46 1.38-.46 2.299-1.38 3.219.46.46 1.842 1.38 1.842 2.302 0 1.38-1.38 2.761-2.302 3.219.922.922 1.38 2.761.922 4.141l-2.302.922c1.38.92 2.302 2.761 1.38 4.603-.92.46-2.3 1.38-3.681.46-.922-.46-.922-1.842-.46-2.762-.461-1.38 1.38-1.38 1.841-2.3-1.842-.46-1.38-2.302-.92-3.683l1.84-1.839c-1.38-.922-1.84-2.302-1.38-3.683.46-.92 1.38-.92 1.38-1.38-.46-.92-1.38-1.38-1.38-2.3-.46-1.38.46-2.302 1.38-3.222-1.38-.46-2.3-2.76-1.38-4.142l1.38-1.38c-.92-.46-1.84-1.38-1.84-2.761 0-.921.46-2.301 1.38-2.762 1.38 0 2.76.92 3.218 1.84zm-186.845 5.063c-.46 1.84-.46 3.222-1.84 4.142-2.761 3.222-6.903 0-10.124 2.76-.46-.459-.92-3.221-.46-4.601 2.76.92 9.204.92 9.664 0 .46-1.38.92-3.22 0-4.602 0-1.381-5.983-1.381-9.204-.92-.92-.92 0-2.302.46-3.223 3.22 1.382 11.965-1.84 11.504 6.444zm92.964-4.141c-.46.459-1.38.459-1.842 0-.46-.46 0-.46.46-.921.46.46 1.382 0 1.382.92zm5.522 0s-.46.459-.922.459h-2.3c0-1.84 2.762-1.38 3.222-.46zm-46.022.459s-.46.46-.92.46c-2.301.46-4.602 0-6.904-.46l.46-.92c2.302.46 5.064 0 7.364.92zm51.545 0c-.922.46-1.842.92-2.302 0 0-.92 1.841-.92 2.302 0zm-42.34-.46c.46 1.38-.92 1.38-1.38 1.38-.46 0-.92 0-1.38-.46.46-.92 1.84-1.38 2.76-.92zm48.782.46c.46.92-.46.92-.92 1.381-.46-.46-1.841 0-2.302-1.381 1.38 0 2.76-.92 3.222 0zm5.063 0c0 .46 0 .92-.46.92-.46-.46-1.842.461-1.38-.92.458-.46 1.38-.46 1.84 0zm-42.8 1.381c-2.761 0-5.983-.46-8.744-.46 0-.46 0-.921.46-.921 2.762.46 5.983-.46 8.284 1.381zm-16.108-1.381c0 .92-.92.92-1.38 1.381-.46-.46-.46-.46-.92-.46-.001-1.38 1.84-.921 2.3-.921zm39.116 2.762c-.92.92-1.377-.46-2.3 0v-.46c.461-.46.461 0 .923.46 0-.46.46-1.38.92-.46.457-.46.457 0 .457.46zm5.985.46c-.92.46-2.3 0-3.22-.46.46-.92 1.84-.46 2.762-.46.458.46.458.46.458.92zm-36.357.46v.46c-.92-.46-2.76 0-3.681-.46.46-1.38 3.22-1.38 3.68 0zm-6.442 0c-2.301 1.38-5.523.46-8.284 0l.92-.92c2.302.92 5.522-.46 7.364.92zm48.782 0v.46c-.92.46-2.3 0-3.222-.46v-.92c1.38 0 2.302 0 3.222.92zm-59.827 0c-.46.46-1.38.46-1.38 0-.002-.92.92-.92 1.38 0zm26.231.92c-1.84 0-4.602 0-5.983-.46-.46-1.38 1.38-.46 1.84-.92 1.382 0 3.683 0 4.143 1.38zm37.279-.46v.46c-.46 0-1.383.46-1.842 0-.46-1.38 1.38-.92 1.842-.92v.46zm50.622 3.682c0 .46 0 1.38-.46 1.84.92 1.38.92 2.3 2.3 3.22 1.841.922 4.143 0 5.525-1.378.92-1.38.92-3.221.459-4.602-1.38-2.762-5.061-2.762-6.903-.921-.46.46-.46.46-.92 2.76l-2.302-.919c.923-2.76.923-2.76 1.842-3.221 1.38-1.382 2.761-2.301 4.603-2.301 2.761-.46 4.603 1.84 5.983 4.141.92 2.3 0 5.523-1.842 7.364-1.38 1.38-3.68 2.3-5.983 1.842-2.76-.922-4.14-3.222-4.603-5.983 0-.922 0-1.38.46-2.302l1.841.46zm-64.889-2.3c0 .459-.46.92-.922.92-.46-.461-1.839.46-1.839-.92.92 0 1.84-.921 2.761 0zm5.523.92v.46c-.922 0-1.842 0-2.302-.46v-.461c.92 0 1.38-.46 2.302.46zm-56.148.46l-.459.459c-.46 0-.92 0-.92-.46v-.46c.459 0 .92 0 1.38.46zm11.045 0c0 .92-.92.459-1.38.92-2.76 0-5.062.46-7.823-.46v-.46c3.222-.46 5.983 0 8.744-.46l.46.46zm16.108.92l-.46.46c-2.76-.92-5.522-.46-8.744-.92 0-.46.92-.92 1.38-.92 2.762 0 5.983-.461 7.824 1.38zm-11.505-.92v.459c-.46.46-1.84.46-2.3 0-.002-1.38 1.84-.92 2.3-.46zm45.56 0c-.46 1.38-1.38.459-2.299.92-.46-.46-.46-.92 0-1.38.92 0 1.38 0 2.3.46zm-12.424 1.84v.922h-1.38c-.462-.922.918-.922 1.38-.922zm6.442.922c0 .46-.46.92-.92.92-.92 0-1.842 0-2.3-.92.458-1.381 2.3-.922 3.22 0zm4.603.46c-.46.92-1.38.46-2.3.46v-.92c.458-.922 1.838 0 2.3.46zm-40.96.46l-.46.46h-4.14c-.461-.46 0-1.38.459-1.38 1.38.46 3.221-.462 4.14.92zm-15.186-.46c.459.46 0 .92-.46.92-.92 0-3.223.46-4.603-.46 1.38-1.382 3.683 0 5.063-.46zm7.823.46c-1.381 1.38-4.141.46-5.523 0 .46-.92 3.681-.46 5.523-.46v.46zm36.816 1.84c0 .92-.92.92-1.38.92-.92 0-1.38-.46-1.38-.92.46-.46 1.84-.46 2.76 0zm5.522.92c-.92 0-1.839.46-2.3 0v-1.38l2.3.46v.92zm5.523 0v.46c-.92.46-2.3 0-2.761-.46 0-.92 1.841-.92 2.76 0zm-42.339.461v.46c-.92 0-3.221 1.38-3.682-.46.921-.922 3.222-.922 3.682 0zm-11.965-.461c0 .46-.46.922-.921.922-1.84.459-3.681.459-5.523-.46l.46-.461c1.842.46 3.683-.462 5.984-.001zm5.982.922c-.92.459-2.3.459-3.221.459l-.46-.46c.92-.921 3.221-1.382 3.681 0zm16.568.459c0 .922-1.38.46-1.84.46-1.84-.92-4.603 0-6.904-.92.46-.46 1.842-.46 2.761-.921 1.842.461 4.143.461 5.983 1.38zm34.976-.92v.46c-.46.46-1.38.46-1.842 0 0-.46.922-.921 1.38-.46h.462zm-13.348 2.762c-.92.46-2.758.46-3.68 0 0 0-.46-.46 0-.92 1.38.458 3.223-.462 3.68.92zm5.985.92c-.92.46-2.3 0-3.22-.46 0-1.38 2.3-.46 2.762 0 .458 0 .458.46.458.46zm-44.641 0c.46.921-.92 0-1.38.46-2.3 0-4.602.46-6.902-.46v-.46c2.76 0 5.981-1.38 8.282.46zm5.983 0c-.92.921-2.3.46-2.761.46-.46-.46.46-.92.46-1.38.921 0 1.842.46 2.301.92zm11.045.921s0 .46-.46.46c-2.301-.92-5.062-.46-7.824-.92-.46-.92.92-.92.92-.92 2.762-.461 5.524-.001 7.364 1.38zm32.216-.461c-.92.46-2.762.46-3.222-.46.92-.92 2.76-.46 3.222.46zm-110.452.92c-.46.921 0 1.84-.92 2.301-.92 0-1.38 0-1.841-.46-.46-.46-.92-1.842-.46-2.761.92-.46 2.76-.46 3.22.92zm99.864.921c-.459 1.38-1.839 0-3.219 0-.46 0 0-.46.46-.922.92 0 1.84.462 2.76.922zm5.985.46c-.92.922-2.3.922-3.22 0v-.46c1.38-.46 2.3 0 3.22.46zm-45.56.46v.46c-2.301.92-5.063.92-7.363 0 0-.46 0-.46.459-.922 2.76.462 4.603-.458 6.903.462zm49.7 0v.46h-1.38v-.922c.461.001.923.462 1.38.462zm-59.825 0v.46h-.92v-.46c.459 0 .92-.46.92 0zm64.429.462c0 .92-.92.92-1.842.459v-.46c0-.461 1.38-1.38 1.842 0zm-49.242 0c.46 1.38-1.38.459-1.84.92h-.922c-.459-.92.921-1.38 1.38-1.38.46.46.921-.002 1.382.46zm11.505 1.38l-.46.459c-2.76-.92-5.522-.46-8.743-.92 0-.92.46-.92.92-.92 2.76.458 6.443-.922 8.283 1.38zm22.089.459c.46.46 0 .46-.46.46l-2.76-.46c-.46-.46.459-.46.919-.92.92 0 1.843.46 2.3.92zm5.522.46v.46c-.92.46-1.839 0-2.76-.46.46-.92 2.303-.92 2.76 0zm67.653.462c-.46 0-2.302-.46-2.764-.46-.92 2.299-.92 2.299-1.38 4.602.46 0 .923 1.38 2.303 1.38 1.38-1.38 1.841-3.221 2.3-5.522h-.92l.46-2.761h1.38c.46 0 .92-.46.92 0l.46.459c-.922 3.683-.922 9.206-5.063 11.045-1.842 0-2.762-1.38-3.222-2.759-.46-.46-.46-.922-.92-.922l-4.14 1.842c-.92 0 0-1.842.46-2.762 1.38-.922 3.219-.922 4.14-2.76.46-.923.92-2.303.46-2.303l-3.22-.46v-3.22c2.762.919 6.443 1.38 9.204 1.84l-.458 2.76zm-118.735.92c-.92.919-1.84 0-3.22 0v-.92c1.38 0 3.22-.462 3.22.92zm11.505 0c-2.3.919-5.522-.461-8.284.46 0 0-.92 0-.92-.922 3.221-.458 6.443-.92 9.204.461zm44.642-.92v.92c-.922.46-1.38-.461-1.842-.92.46-.462 1.38-.462 1.842 0zm-32.676 1.38v.92c-2.761-.461-5.983-1.38-9.205-.92v-.922c3.222-.458 6.444 0 9.205.922zm19.329 1.38c-.46.459-2.3.459-3.222 0 0-.922.922-.46 1.842-.922.46.461 1.84-.458 1.38.922zm5.521.459c-.459.922-2.3.46-3.219 0-.46 0-.46-.92 0-.92.92.46 2.761-.46 3.22.92zm4.143.46c-.46.46-.92 0-1.38-.46-.002-.92 1.84 0 1.38.46zm-53.384.462c-.46.92-1.38.46-1.84.46-.46-.46 0-.922.46-1.382.46.46 1.38.46 1.38.922zm13.806-.462c.46.46.46.922 0 .922-3.682.92-7.362-.46-11.505.46v-1.38c3.68-.921 7.823.92 11.505-.002zm11.505 1.382v.46c-2.76-.46-5.983 0-8.745-.92 0-.922 1.84-.46 2.762-.922 1.841.462 4.142 0 5.983 1.382zm34.975-.46c-.92.46-2.3.46-3.219 0v-.922l3.22.46v.462zM29.764 132.46c-.46-.922 3.221 8.741 2.761 9.203-3.682.92-7.363 2.761-10.585 4.603-1.38-3.222-3.221-5.983-3.682-9.664.46-.46 1.84-.922 2.301-.922.921 2.302 1.84 5.523 2.761 6.445.46 0 1.38-.46 1.38-.46 0-1.842-1.84-4.604-1.38-5.061 0-.46.921-.923 1.84-.923 1.38.46 2.302 5.064 2.762 4.603.92-.46 1.84-.46 1.84-.92-.92-.46-2.76-6.444-2.3-6.902 2.302-.464 1.841-.464 2.302-.002zm182.705 2.3c.92 2.299-3.684 2.299-1.842 4.14.46 1.38 0 2.762-1.38 3.222-.92 0-2.3-.46-2.761-1.38 0-1.38.46-2.761 1.842-3.221.92-.46-.923-1.38-.46-2.303 0-.92 0-1.839 1.38-2.3 1.38-.458 2.76.461 3.22 1.841zm-110.452 0v.919c-3.22-.92-6.902-.46-10.124-.92-.46-.922 1.38-.46 1.84-.922 2.301-.458 5.523 0 8.284.922zm-29.913-.461c0 1.842-2.301 5.063-2.762 6.445 0 .92.921.92 1.84 1.38.92.459 0 1.38-.46 1.38-1.38-.46-2.761-1.38-4.14-2.303 1.379-2.3 2.76-4.6 3.22-7.364.92 0 1.38 0 2.302.462zM8.594 136.6c.46 1.38-.92 2.3-1.38 3.22.92 0 2.301.921 2.762 1.84.459 1.38 0 2.762-.921 3.223.92.459 2.3 1.38 2.761 2.3.92 1.84-3.221 4.14.46 3.682 1.38.92 1.38 2.762.92 4.142-.92 1.38.92.459 1.38.92 1.38.919 1.38 3.221.92 4.602l-.92.46c.92.46 2.301-.46 3.222.46.92 1.38.459 2.761 0 4.141-.921.92-1.84.46-3.222.46-.92-.922-.92-2.76-.46-3.683l.46-.92c-1.38-.46-3.222 0-3.682-1.841 0-.92 0-2.3.46-3.22-.92-.46-2.3-.921-2.76-2.301-.461-1.38.458-2.3.919-3.22-1.38-.46-2.761-.922-2.761-2.302s.46-1.841.92-2.76c-.92-.461-2.762-.92-2.762-2.762.46-.92.46-2.3 1.38-2.761-.92-.46-3.22-1.38-3.22-2.762.459-1.38.919-2.761 2.3-3.221 1.383 0 2.764.461 3.225 2.303zm127.938 1.381c-.459 1.84-.92 4.142-.92 5.98.461.461 1.842.461 2.762.923 0 .92-.46 2.3-.92 2.3-1.38-.461-3.683-.461-4.603-1.38 0-2.762.46-5.984 1.842-8.284.458 0 1.84 0 1.84.461zm-34.515.458v.46c-2.761-.919-6.443.461-9.205-.919 1.84-1.842 4.602-.46 6.903-.46l2.302.92zm-21.17 2.304c0 .92-.458 1.38-.92 1.38-.92 0-1.84-1.842-2.761-2.303-.46 0-.46 1.38-.92 1.38.46.46 1.38.923 1.84 1.38 0 .46 0 .923-.92 1.38-.46 0-.92-1.38-1.38-1.38-.46 0-.92 1.38-1.38 1.38.46.923 2.3 1.38 2.761 2.302 0 .46-.46 1.38-1.38 1.38-1.38-1.841-4.141-3.221-4.141-3.683.92-1.839 4.601-6.902 5.062-6.442.918.464 3.219 2.303 4.14 3.226zm113.213 1.839c-.46.922-.46 1.841-.923 2.302-.459.92-6.442 3.219-9.203 4.141 1.842.92 4.141 1.842 5.983 2.761 0 .46-.46 1.842-.922 2.3a103.913 103.913 0 0 1-10.126-5.06l.46-.923c3.223-1.38 6.445-2.3 9.665-4.141a11.302 11.302 0 0 0-6.903-2.3c0-.92.46-2.3.922-2.761 3.684 1.38 6.905 2.761 11.047 3.68zm-51.545-2.762l-.92 7.365c0 .46-1.38.46-1.841 0 0-2.762.46-5.523.92-7.822 0-.462 1.841-.002 1.841.457zm8.744 1.842l-.46 1.38c-1.38.92-2.3-1.38-4.141-.46-1.38.922-.92 2.76-.46 4.14.46.461 1.38.923 2.3.461 0 0 .46-.92 0-1.38 0-.46-1.38 0-1.38-.46s0-.92.46-1.38c.92 0 2.762.46 2.762 1.38 0 1.38 0 3.683-.922 4.144-1.84.459-3.681-.46-5.061-1.383-.92-1.38-1.38-3.219-.92-4.6a4.993 4.993 0 0 1 3.681-3.684c1.842-.459 2.761 1.38 4.141 1.842zm14.267.46c.46.46-1.38.92-1.38.92 0 .46.46 3.68 0 4.603 0 .46-1.842.92-1.842.92-.46 0 0-3.681-.46-4.603 0-.46-1.38 0-1.84 0-.46 0-.46-1.38-.46-1.84.46-.46 3.684-.922 5.523-1.841l.46 1.842zm-75.013-.922c.459.923-.46.923-.921.923-.46 0-.92 0-.92-.46-.46-.92.92-.461 1.38-.92 0 .457.46.457.46.457zm11.044 1.382c-2.76.46-5.523-.92-7.824-.92-.46-.46 0-.46.46-.92 2.762.458 5.523 0 7.364 1.84zm52.925-1.382c.46.923-.46 3.222 0 3.222s1.38.46 1.84 0v-3.222s1.382 0 1.841.46c.46 0 0 5.984.46 6.903 0 .46-1.841.46-2.302.46v-2.301h-2.3c0 .922.461 2.763 0 2.763h-2.299V141.2c.457-.456 2.76.001 2.76.001zm54.764 3.222c.46 1.842-1.38 3.222-2.761 3.68 1.38.923 1.841 2.303 1.38 3.684-.462 1.382-2.3 1.38-3.222 1.38-.92-.92-1.84-1.841-1.38-3.221.46-.92 1.38-1.842 2.302-2.3-.922-.922-1.38-2.761-.922-3.683.923-2.3 4.603-1.84 4.603.46zm-126.097-1.38c.92 1.38 1.84 3.68 3.221 5.06l-1.38 1.383c-.92 0-.92-.922-1.84-1.382-1.38.922-2.3 2.764-3.68 3.222-.922 0-1.38-1.38-1.38-1.84.919-1.382 3.681-1.841 4.14-3.683-.459-.46-.459-.92-.92-1.38.459-.92.918-1.38 1.839-1.38zm18.408 2.3v.46c-2.301-.46-5.523 0-8.284 0l-.46-.92c1.38-.922 4.142-.46 6.444-.46.46.462 1.84 0 2.3.92zm-65.81 4.145c-1.382.459-2.762 1.38-3.681 2.3.92 1.841 2.761 4.602 3.22 4.602 1.38-.46 3.222-2.302 3.682-1.841.46.46 1.38 1.38 1.38 2.3-3.22 1.84-5.983 4.602-9.204 6.444-.921-.46-1.38-1.842-1.84-2.302.919-1.84 3.681-2.3 3.221-3.22-1.38-1.38-2.3-5.063-2.761-4.602-.921.46-2.761 1.841-3.682 1.841-.46-.46-1.38-1.38-1.38-2.761 3.682-1.38 6.903-3.222 10.125-5.525.46.46.92 1.842.92 2.764zm56.146 7.361c.46.46-.921.923-1.38 1.842 0 .46-.46-1.38-1.381-1.842-1.38.923-2.762 2.762-4.142 3.684-.92-.922-1.38-1.38-.92-1.842.46-1.38 3.222-2.761 4.142-3.68-.46-.923-.46-1.38-.92-1.842-.46-.92.92-.92 1.38-1.38.92 1.38 2.76 3.68 3.22 5.06zm112.751-2.76c.922.921 1.38 2.301.46 3.22-.46 1.843-5.06 0-2.299 2.762.46 1.38-.46 2.761-1.842 3.222-.46 0-.92 0-.92.459.46.922.92 2.302.46 3.222-.92 1.38-2.3 1.841-3.68 1.38.46 1.38 1.38 3.221 0 4.603-.92.92-2.762.46-3.684.46.922.92.922 2.3.46 3.68-.92.92-2.761.92-3.68.92.919.46.458 2.303.458 3.222-.92.92-1.839.92-3.219.92 0 1.382.46 2.302-.46 3.221-.92.922-1.842 1.38-3.222.922-.459 1.38 0 3.681-2.3 4.142-3.68-1.38-.46 3.68-3.221 3.68-1.38.46-2.3-.46-2.761.46.46 1.38 0 2.762-1.38 3.22h-2.761c0 1.38-.46 3.222-2.3 3.683l-2.302-.46c0 1.38 0 2.761-1.84 3.222-.921.46-1.841 0-2.763-.46-.46 1.38-.92 3.221-2.3 3.683-1.38 0-1.839-.46-2.76-.922 0 1.38-.92 3.683-2.762 3.683-.92 0-1.842-.922-2.3-1.842 0-1.38 0-2.761 1.38-3.221 1.38 0 2.762 0 3.22.922h.46c0-.922 0-2.762 1.38-3.684 1.38-.459 2.3.46 3.221.46 0-.919.46-2.299 1.842-3.221 3.681 1.38 2.3-5.983 6.442-3.222 1.842.46.46-2.3 1.38-2.76.46-.92 1.38-.92 2.761-.92v.46c.92-.922.46-1.842.92-2.761.46-2.302 5.063 0 3.683-3.684 0-.92 1.38-1.38 1.842-1.38.92-.459 1.84 0 2.3-.459-.46-1.38 0-2.764 1.38-3.683 4.14 1.38.46-5.983 5.522-3.681 0-.922-.46-2.302 0-3.683.92-.92 1.842-.92 3.222-.92-.46-1.38-.46-3.68 1.38-4.603h2.3c-.46-.92-1.38-2.761-.46-4.141.92-.92 1.84-.46 2.762-.92-.46-1.38-.923-3.221.459-4.141l2.302-.922c-.922-.92-.922-1.84-.922-3.22.922-.921 1.38-1.841 2.76-1.841.463.463 1.382.003 1.382.922zm-18.41 5.063c.461.92-.458 1.839-.919 2.76-1.38.46-2.3-1.84-3.68-2.301l-6.445-3.681c-.46-.92.922-1.38 1.38-2.3 3.223 1.38 5.984 4.6 9.665 5.522zm-92.5.457c-.461.923-2.302 2.762-2.302 2.762.46.46 1.38 1.38 1.84 1.38.461-.92 1.843-2.3 1.843-2.3.459.46 1.38 1.38.92 1.842-1.38 1.839-3.223 4.603-4.603 5.983-.46.459-1.38-.46-1.84-.922 0-.92 1.38-2.3 2.3-3.222 0 0-.46-.92-1.38-1.38-.92.46-1.38 1.842-2.3 2.302-.46 0-.92-.46-1.38-1.842 1.84-1.841 3.682-3.68 5.523-5.983.918-.459.918.923 1.378 1.38zm-46.942 6.445c-2.761.92-5.062 3.68-7.364 5.983.46 1.38 3.221 2.3 2.76 3.22-.919.921-1.84 1.84-1.84 1.38l-7.363-8.743c0-.46.92-1.382 1.84-1.841 1.38.92 1.841 3.221 3.223 3.68 2.3-2.299 5.062-4.14 6.903-6.442.92.46 1.84 1.383 1.84 2.763zm80.076-2.302c.46 0 .923.922 1.38.922-.92 1.38-1.839 1.38-2.76 2.3.46 0 .46 1.38.921.922.46-.46.92-.922 1.38-.922l.92.922-1.38 1.38c0 .459.46 1.38.92.92 0 0 .922-1.842 1.841-2.3.46 0 .92.92.92.92-.46 1.38-2.762 2.76-3.681 3.68-1.842-.92-2.761-3.68-4.141-5.983 1.38-.459 2.76-1.839 3.68-2.761zm-25.311 2.302l-.92 1.38c0 .46-2.3-1.38-2.3-.922l-.922.922c.46.46 1.84.92 1.84.92 0 .46-.458.46-.458 1.38l-2.301-.92c0 .46-.46 1.38-.46 1.38.919.46 2.3 1.38 2.76 1.38.46.46 0 1.38-.46 1.842-1.84-.46-3.682-1.38-5.063-2.762.92-2.302 1.842-5.063 4.142-6.905 1.382.463 2.762.925 4.142 2.305zm-80.537 2.3c.46 1.38-.92 2.762-2.301 2.762-.92 0-1.84-.92-2.301-1.839 0-1.38 0-2.302 1.38-3.222 1.842-.461 2.761.458 3.222 2.3zm154.632-.458l-1.38-1.842c-.46.46-.923 1.842-1.842 2.3 1.38.46 2.3.922 3.683.922v-.46l-.922-.92 1.842-1.383 1.839 1.842c0 .46.46.46.922.46 0 1.842-1.842 3.681-3.222 4.603l-1.38-1.38-9.663-2.761c-.46-.46.46-1.842 1.38-2.302.92 0 2.3.922 3.221.46 1.38-1.38 2.762-3.221 2.3-4.14-.46-.461-.92-1.843-.92-1.843l1.38-1.841 4.603 6.902-1.841 1.383zm-61.67.92c.46 0 0 .919 0 1.841h-2.762s0 1.38-.459 1.38h2.3v1.38s-1.38.46-2.3 0v1.38c.92.46 3.22 0 3.22 0v1.84c-1.84 0-4.142 0-5.522-.92 0-2.3.46-5.061.921-7.365 1.383.003 3.682.463 4.602.463zm-9.663 0c-.46.46-.46 1.841-.46 2.299h.92c1.38 0 1.38-.92 1.38-1.38-.46-.46-.46-.92-.92-.92h-.92l-.46.46-1.84-.921c.46-.92.46-1.38.919-2.3 1.381 0 3.222.46 4.142 1.38.92.92 1.38 2.3.92 3.68 0 .461-.92 1.38-1.84 2.303-.46-.46.46.92.92 2.3h-2.3c-.46-.46-.46-1.842-.46-2.3 0 0-.46.46-1.38 0 0 0-.46.92-.46 1.84-.46-.46-2.3-.92-2.3-.92.458-1.842 1.38-4.142 1.84-5.983l2.3.461zm-80.538 3.68c0 1.38-.46 3.222-1.84 3.222-1.38.46-1.841-.46-2.301-1.38-.46-.92 0-2.761 1.38-3.222 1.38-.92 2.3.46 2.76 1.38zm96.645 0c0 .46.46 1.38.46 1.38.46 0 1.38 0 1.84-.459.92-2.3-1.38-1.84-2.3-.92v.46l-1.38.92c-.46-1.38-.922-1.84-.922-3.22l1.842-.46v.46c0-.46 1.842-.922.922-1.38 0-.922-1.38-.46-1.38 0l.46 1.38-1.843.46c-.459-1.38-.459-2.3-.459-2.762 1.842-.92 3.681-1.842 5.061-.92.46.92.46 1.842 0 2.762.92.46 1.38.46 2.302 1.38.46 2.3-.46 3.221-2.302 4.14-.92 0-1.839.461-3.219.461-.46-.922-.46-1.841-.922-2.761l1.84-.92zm-93.884 4.141v1.842c1.38 0 3.222 0 3.68 1.38l.461 3.222c.46 0 1.84-.46 2.301.46 1.38.46.46 1.84.46 2.761v.46c.46 0 2.301-.46 3.221.46.46.92.92 1.38.92 2.761 1.38.46 3.221 0 4.142 1.842-1.38 3.22 3.682.92 3.222 4.141v1.38c.92-.46 2.761-.922 3.68 0 .461.92.921 1.84.461 2.761 1.38-.922 2.3-.46 3.68 0 .92.46.92 1.842.92 2.762 1.38 0 3.683-1.38 4.142.92v2.76c.46-1.38 2.3-2.299 3.682-1.38.92.461 1.38 1.38 1.38 2.762l-.46.46c.921 0 2.301-1.841 3.681-.92.921.92 1.382 2.3 1.382 3.682.459-1.38 2.3-2.3 3.68-1.38.92.92.92 2.3.92 3.68-.92.923-2.3 1.842-3.22.923-.921-.923-1.84-1.842-1.38-3.222-.921.46-2.762 1.842-4.142.92-.92-.92-.92-1.84-.92-2.762-.921 0-2.301 1.38-3.682 0-.46-.92-1.38-1.38-.921-2.761-.46.922-2.762 1.842-3.681.46-.92-.46-.92-2.3-.92-3.221-.92.46-2.3.922-3.221.46-.921-.462-1.382-1.38-1.382-2.761-.92.46-2.3.46-3.22-.46-1.38-.92-.92-2.3-.46-3.681-.46.459-2.3 1.839-3.681.459-.921-.92-.46-1.84-.46-3.22-.92 0-2.3.46-2.76-.46-.92-.46-1.382-1.38-.92-2.761-.921-.46-1.842.92-2.763 0-1.38-.46-1.84-1.842-1.84-3.222l.46-.459c-.46 0-1.84.46-2.3 0-1.842-.922-1.382-3.222-1.382-4.141-1.38.459-3.222 0-3.68-1.383l.458-2.761c-.92 0-2.3.46-3.22-.46-.46-.921-.46-2.301 0-3.22 1.381-1.382 3.222-.463 3.682.917zm135.762 4.143c-.46.922-.46 1.842-1.841 1.842-.92.46-1.378-.46-1.378-.92-.46-.922 0-1.38.92-1.842.92-.461 1.839 0 2.3.92zm-105.847.46c0 .92-.46 1.842-1.381 2.302-.92 0-1.84-.46-1.84-1.382-.461-.92 0-1.84 1.38-2.3.46 0 1.38.46 1.84 1.38z"/><path d="M10.895 110.829c0 2.3 0 4.6-.46 6.902.46 11.506 3.222 22.09 8.284 31.755 1.38 9.204 7.823 16.567 13.347 23.47 3.68 7.365 9.205 13.348 15.647 18.409 5.522 3.221 9.663 9.205 16.107 10.125 3.221 1.38 5.062-.46 7.363-2.302.92.46.92.922 1.38 1.842l1.84-.46c0-3.221 2.301-5.525 3.682-8.744l-1.84-.46c-.92 2.3-1.38 3.68-2.761 5.522-.92 0-1.38-.46-1.38-.92.46-2.301 1.38-5.982 2.3-7.824l-2.76-.459c-.922 2.761-2.302 6.442-2.762 9.203-.921 1.842-2.761 2.762-5.062 1.842-9.205-2.761-15.188-11.045-23.472-16.569-2.76-2.3-3.22-5.98-5.522-8.741-6.904-6.906-12.887-15.647-15.186-25.315-3.222-6.902-5.063-14.726-6.904-22.55 0-5.061 0-10.126-.46-14.726h-1.38z"/><path d="M31.145 110.829c0 6.902-.92 13.806 3.682 18.867-.92 10.125 5.523 17.95 9.664 26.234 3.682 3.68 8.744 10.583 12.426 14.267l.92-2.3c-6.903-6.445-13.346-15.189-16.566-23.933-5.523-5.523-1.842-14.267-6.444-20.247.46-4.141-.46-8.744-.46-12.887h-3.222v-.001z"/><path d="M48.632 110.829c-4.141 4.6-7.823 8.744-11.504 13.806 0 .46.46.92.46.92 5.522-4.6 9.663-9.664 14.266-14.726h-3.222zm10.126 51.084c0 .459 0 .92.46 1.38 3.222.92 0 4.141.46 5.983-.92-.46-1.841-1.38-2.3-1.842l-.92 2.3c2.301 2.302 3.681 3.221 5.523 3.683.92.92 1.84 1.84 2.76 2.3l.92-1.842c-1.841-1.38-2.762-2.761-4.602-3.22l-.46-.46c.919-.92 1.38-2.3 2.3-3.221 0 .922.46 1.38.46 2.302l1.84-.46c0-1.38.46-2.762-.92-4.142-.92-.922-2.3-1.842-3.22-2.761h-2.301z"/><path d="M69.342 161.913c.46.92.921 1.38 1.84 1.839 1.841 0 3.683.46 4.143 2.302-2.3 0-5.062-.922-6.443-2.302-.921 1.842-2.3 2.761-2.3 4.603 1.379 1.842 3.22 3.222 3.681 5.522 0 .46-.46.46-.92.46-.92-1.38-.46-3.22-2.762-3.22-.92-.46-1.38-2.3-1.38-3.22l-1.84.92c0 1.841.92 3.68 2.76 4.603.92.459 1.38 3.219 3.682 2.76l.92 1.38c-1.841-.921-3.221-1.84-5.523-4.14l-.46 2.3c3.681 2.76 6.443 4.14 9.204 6.441-.92 2.302-1.842 4.144-2.761 6.445h2.761c.92-2.3 1.84-3.68 2.761-5.983.46-2.761-1.84-4.603-1.38-6.903 2.762.92 5.523 1.842 7.363 4.142-.46 2.3-3.682-.46-4.601 2.3 0 3.22-.921 6.904-1.84 9.666l1.84.459c.92-1.84 1.84-4.142 1.38-6.442 1.84-.92 2.76.92 4.601.92 2.301 0 4.602 0 7.363.46l-.46-1.842c-2.301-.46-3.681-.46-5.983 0-.46-.46-.46-1.38 0-2.3h-2.762l-.459.92c-.46-.46-1.841-.46-1.38-1.38h1.38v.46l3.22.46v-1.84c-.46-2.303 0-3.684.922-7.365l-1.84-.46c-.461 2.302-.461 2.76-.922 3.683-2.76-1.38-5.522-4.603-8.744-3.684l-1.84 1.842c.92-1.38.92-2.761 1.381-5.06l-1.842-1.38c-.459 1.38-.459 1.38-.92 1.838-.919-1.38-2.3-2.3-2.3-4.14 1.38.921 4.141 0 3.22 2.301l-.459.46 2.301 1.38c0-.46 0-.46.46-.92.92 1.842 3.22 2.3 5.061 1.38.921-.46 2.301-.92 2.301-1.842 0-1.38-1.38-2.761-2.3-3.222-.922 0-1.841.923-2.302 1.842 0 .46.46.46.46.922h.92c0 .46-.459.46-.459.92-.46-.46-1.38-.46-1.84-.92.92-1.841 1.38-4.603 0-5.983 0-.922 0-.46.46-1.38h-2.761c.92 0 2.3.46 2.3.46l.461-.46h-2.761s-.46 0-.46.46c-.92 0-1.38 0-1.38-.46h-2.762v-.002z"/><path d="M80.848 161.913c.92 2.761 3.221 5.06 4.141 7.822-.92 1.38-.92 3.222-.92 4.603l1.84.92c.46-.92.46-1.84.92-2.762 1.38.922 4.142 3.222 5.523 4.141l.92-2.3c-5.063-2.76-7.824-7.363-10.585-12.424h-1.84z"/><path d="M132.851 161.913c.46 1.38.92 3.219.46 5.06-2.301 6.445-8.743 10.126-15.188 11.506l1.382 2.3c1.84-.46 2.762-.46 4.6-.92.923.92.461 2.761.461 4.141-.922.46-1.841.922-3.221.922-2.762 1.38-5.061 3.22-8.284 3.681l-.46-.46.46-6.442c1.842-.46 3.68-.46 6.902-.922l-.92-2.762c-1.38.46-2.301.46-2.301.46-4.6.92-6.442.461-10.585-.46l-.92 2.303c1.84.459 2.762.92 4.602.92l.922.46-.922 6.902c-3.22 0-7.823 0-11.044-.92.46-2.76 0-5.983 1.38-8.286 1.38 0 4.602.922 5.982 1.38l.46-2.761c-3.221-.92-7.823-1.84-11.045-2.761-.92-.46-2.76-.92-3.22-1.38l-.46 2.302c1.84 1.38 2.76 1.839 5.062 2.3v.46c-.92 2.76.46 5.06-.92 7.822-1.38-.46-4.602-1.38-5.983-1.38v1.841c6.903 1.38 14.267 4.603 22.092 3.681 5.98-.92 10.125-5.522 16.566-5.522 2.3.46 4.603 0 6.902-.92l-.92-1.842-.921.46v-1.38c0 .46.922.46 1.38.46 0 0 0 .46-.46.46h-.46l.92 2.303c.46-.46.922-.46 1.841-.923l.92 2.303c0 5.06 2.761 8.741 5.063 12.425.92 3.221-3.221 4.603-5.063 6.442-3.68.46-8.284 0-11.503 2.302-4.141 0-6.445 2.761-10.126 2.3-8.285-.461-17.488-.461-25.772-2.762-5.522 0-12.886 1.38-15.646-4.141-.46-.92-.46-2.3-.46-2.761h-2.302c.46 1.38 1.38 4.603 2.762 5.983 4.14 4.14 10.124 4.6 15.646 3.219 7.824 2.76 17.028 2.302 25.772 3.683 3.222-.46 5.983-1.842 9.204-2.302 5.063-4.141 12.425 0 17.028-5.523 2.302-1.38 2.761-3.68 3.683-5.522 1.38-.92 2.762-.92 4.142.46 2.299.92 4.6.46 6.902-1.38 7.364-5.522 14.726-10.586 22.089-16.569 4.141-6.902 8.744-13.806 14.267-20.247h-3.222c-1.38 1.38-2.3 2.762-4.141 4.142-5.061 6.902-7.822 17.028-16.567 20.25-5.06 4.6-11.045 6.441-15.186 11.502-.922.46-2.302.46-3.683 0-3.22-2.3-2.762-6.442-4.142-9.664-.92-.92-2.3-2.76-3.219-3.68l-.922 1.841c2.302 2.762 4.603 5.523 4.141 9.204-.459.46-.92.46-1.38.46l-4.14-5.063c-1.38-3.681-.461-8.745-5.062-10.126-.922-.459-2.302 0-2.76-1.38.919-3.68 5.982-2.3 8.74-4.141h.923c1.38 2.761-2.761 3.222-2.761 5.983.459 1.842 1.38 3.683 2.76 5.063l.92-1.38c-.92-1.38-1.38-1.841-1.841-3.683 1.382 0 3.221-.92 4.603-1.38l-1.84-.92c-.922.46-1.841.92-1.841.46l1.842-2.3.92.92c0 .46-.461.922-.92.922l1.38.92c1.839-.461 2.76-1.38 4.14-2.762 1.84-1.842 5.062-4.141 7.365-5.983l-1.383-.92c-2.76 1.842-5.522 4.603-8.283 6.903-1.84-.46-1.38-3.68-4.142-3.68-.92-1.38-1.38-4.604-1.841-5.984l-1.84.92c.46 1.38.92 3.683 1.38 5.063-1.841 2.3-5.063.92-6.902 2.3-2.302 1.38-4.141 3.221-2.761 5.983 0 .459.459.92.459 1.841-1.38.46-3.22.92-5.06.46 0-1.842-.92-3.681-.461-5.984 5.522-3.219 10.125-9.203 9.206-16.105 0-.46-.46-.923-.46-1.38l-2.765 1.385zm-76.855-36.817c-2.76 3.219-5.062 7.364-7.364 11.045h-2.761c3.222-5.061 6.443-10.126 10.125-15.647v-11.506h2.762v22.55c.46 0 1.38 0 1.84-.458v-22.092h1.381v21.631l.92-.46v-21.172h1.38v20.709s.92 0 .46-.46v-20.249h1.84v20.25h.922s-.46 0-.46-.46v-19.79h2.3v20.25h.92v-20.25h1.841v9.664c.921.46 2.301.46 2.301 1.38-.459.922-1.38.46-2.3.922v8.742c1.841 1.841 4.602 3.221 6.443 5.063l.46-.922c3.222-.46 5.983 0 9.205-.46l.92.92-.46.92c-3.222-.92-5.983.46-8.744 0 0 0 .92.46 1.38.922h-4.141c-2.301-1.38-4.602-2.302-6.444-4.141-5.522-1.842-9.204 2.761-14.726 1.839-1.38.46-1.84 1.38-2.3 2.302h-1.84c.458-2.302 1.84-4.603 4.14-4.603v-6.44zm51.083 11.045c-.92-.46-2.3-1.38-3.222-.46v.46h3.222zm9.664-4.143c-1.84 0-4.6.46-5.98.92-.923-.92.459-1.84 1.38-2.3.92-.46 2.3-.46 3.219-.922 0-.46 0-1.38-.46-1.38l-4.14.922c.458-2.302 2.76-1.842 4.6-2.761.922 0 1.38 0 2.302-.46 0-.92-.46-.92-.922-.92-2.3-.46-4.142.459-5.98.92-.461 0-.461-.92 0-1.38 1.838-1.38 4.6-1.842 7.36-1.842l.461-.46c-1.841-1.841-4.603 0-6.442 0-.46 0-.922.46-1.841.46-.46-.46.46-.46.46-.92 1.84-1.842 4.6-2.3 6.902-2.761 0 0 .92-.46.46-.92-1.38-.922-3.681 0-5.523.46-.46.46-1.38.922-1.839 1.38-.922-.46-.922-1.84 0-2.3 1.38-1.842 4.141-.92 6.442-1.38.46-.46.92-.922.46-1.38-2.302-.92-4.602.46-7.364.46.46-.92 1.842-1.84 2.762-1.84 1.841-.92 4.14-.92 5.982-1.38-1.38-1.84-4.14-.922-5.982-.922-.92.46-1.842 1.382-2.762.922 0-.46 0-.922.46-1.38h-3.221v.92c-.46-.46-1.381-.46-1.84-.92h-3.22c.46 1.842 3.222.92 4.602 2.3.46.46 1.38.922.92 1.841-1.38.46-2.762-.92-4.142-1.38-2.76 0-5.982-1.841-8.744-.46 0 .922.92.922 1.38.922 4.602.46 8.744.92 11.506 3.68v1.38c-1.38-.46-3.681-2.76-4.602-.919 1.38 1.38 5.062 1.38 4.602 4.141-1.38 0-2.762-1.841-4.142-.46.46 1.842 3.683 1.38 4.142 3.222v.92c-1.38-.461-3.681-2.3-5.523-.461 1.38 1.38 4.602.922 5.523 3.222v.46c-1.38-.46-3.222-1.842-4.602-.46.92 1.841 5.062.92 4.602 4.14-1.38 0-2.762-1.838-4.142-.919.46 2.3 4.602 1.38 4.142 4.141h11.966c.46-.922 1.38-1.841 2.76-2.302 4.604-1.377 8.285.922 12.426 2.302h9.666v-.922c-1.841-1.38-4.603.922-5.983-1.38-3.683-.459-6.902-.459-10.125-1.839-2.761-.46-5.523.46-7.822-.46-.922 0-1.842-.46-1.842.46-.922-.46-1.842-.46-2.761 0l.459 1.38c.922-.46 1.38-.46 2.302-.46.46-.46.92 0 1.38.46-1.842 3.222-6.445 0-9.206 2.3h-.92c.461-.92 1.842-1.38 3.222-1.842.92-.46 2.761-.46 3.681-.46l-.46-1.383z"/><path d="M153.56 136.14h1.38v-2.76c.922-.461 1.38-.461 1.842-.92v3.219h2.761v-1.842c.46.46.92 1.38 1.38 2.302h2.302c-.922-1.841-1.841-4.603-2.764-5.983 1.38-.92 3.222-2.3 4.603-1.38l.923 2.302 1.839-.922c0-.46-.46-1.38-.92-2.3 2.3 1.84 6.903 2.3 6.903 6.443l2.302-.46c0-1.378.459-2.76-.922-3.681-2.762-3.681-6.903-7.365-10.584-10.126 0-1.839 1.84-1.38 2.3-2.3a13.974 13.974 0 0 1 3.68-3.68l5.064 5.522.92-2.761c-1.38-1.383-2.762-3.222-4.603-4.603.46-.922 2.302-1.38 2.76-1.84 0 0-.458-.921-.919-.921l-.92-.921c-1.841.92-5.982 4.602-7.363 6.443-1.842 1.842-4.603 2.762-7.365 1.842-1.841-.922-4.603-3.222-5.522-5.063l-3.222-1.38c0 .46.46 1.38.922 1.38-1.38.922-3.683.922-5.522.922-1.842 1.38-4.603 3.219-4.144 5.98l-.46.46c-1.38-.919-.919-3.221-.919-4.602l-1.842.92c.46 1.84.46 4.143-1.38 4.602 0 1.842 1.84.922 2.3 1.38 0 .922.46.922.46 1.842h1.38c0-.92 0-1.38-.46-2.761.46.92 1.38 1.841 2.3 2.76l.922-1.38c-.922-1.38-.46-2.299-.46-3.68.46-.46 1.841-2.302 2.76-2.302v2.302c-.919.92-1.839.92-1.38 2.3h1.38v1.841l1.842.46v-6.903c0-.46 1.38-.92 1.38-.46v7.364h1.38v-7.822c1.842 0 2.3 1.841 3.681 2.3v4.602h1.38v-3.68c.46 0 .922.458 1.842.919 0 .92 0 1.38.46 1.842l1.38-.46c0-.461 0-.92.46-.92.92 0 3.22 0 3.22.92-.92 0-2.3.919-3.22.919 0-.46-.46-1.38-.46-1.84l-1.842.46v1.841c-.46 0-1.38.46-1.841.46v-1.38h-1.38v1.84l-1.38.46v-9.206l-1.38.46v8.744h-.92v-.92h-1.38v.92l-1.38.46v-1.38l-1.841-.46v1.842c-.46 0-.92-.46-1.38-.923-.46-.459-.92-1.38-1.38-1.839l-.92 1.84c1.38 1.38 3.222 2.76 4.603 2.76 4.6.923 11.505-2.76 17.948-3.218 1.841.92 3.68 2.3 4.602 4.14-2.302-.46-5.063-2.301-7.824-.921-4.603 3.221-9.204 8.283-16.106 5.983-1.842 0-2.764-1.38-3.222-2.762-.46-1.841-.922-4.603-1.38-5.983h-1.38c0 .923.46 3.222.46 3.684l-2.763.459c-.46 2.302 3.683 0 3.683 2.761.92.922-3.221 1.842-.46 2.764 2.3-.922 3.683 1.84 5.522 1.84.46 0 .46.919.46 1.84h4.604c0-.46.459-.921.459-1.38 0 0 .46.92.46 1.38h1.38c-.46-.921-.92-2.301.92-2.301v2.3h.001z"/><path d="M166.907 136.14c.46-.46.46-1.38.46-1.841.92-1.38.92-2.761.46-4.141l-1.84.922.46.92c0 1.38-.46 2.76-1.38 4.14h1.84zm9.664 0c0-.922-.459-1.841-.459-2.302h-2.302c0 .923-.46 1.38-.46 2.303h3.221zm3.684 0c1.38-3.221 2.76-5.982 2.76-9.663 2.3-5.064 1.84-10.126 1.38-15.647h-1.38c.46 4.141.92 7.822-1.38 11.506-1.38-1.38-3.22-3.684-5.063-5.523l-1.38 2.3 5.983 6.442c0 3.683-1.38 7.364-2.76 10.586h1.84zm-134.384 0c-1.38 1.38-2.3 3.222-3.682 5.061-.46.46 0 1.38.46 1.842 2.301-2.3 4.141-4.603 5.982-6.902h-2.76zm27.153 17.948H60.598v-6.441h1.381v4.603h.92v-4.603h1.38v4.603h.46c.46-.46.46-4.603.46-5.525-.46-.459-.92 0-.92-.459v2.3h-1.38v-2.762h-.92v2.762H60.6v-3.222h-1.841v1.842h-2.762v-1.842h-.459c-.92.46-1.841.922-1.841 2.302l-1.38.92-.92-2.762c-1.38 0-2.3 1.38-2.761 2.762-.46.46-.46.46 0 1.38h-1.84v-1.842c3.221-3.22 5.522-7.362 5.061-11.965h1.84c-.458 1.842 0 4.603-.919 6.442l4.143.46c4.602-1.84 8.743.92 12.885 2.3 6.444 3.684 9.665 10.126 12.887 16.57l-1.381.458-.46-.459-2.76-3.683c-.921.922-1.38 2.302-1.38 3.683h-2.762v-.46s1.38 0 1.84.46h-1.84c0-.922.46-2.302.46-3.221-1.841-1.842-3.222 1.38-2.302 3.221h-2.76c0-.46 0-.922.46-.922 0-1.38 0-2.3-.92-2.761h-7.823c-.46 1.38-.46 2.761 0 3.683h-2.301c0-1.38.92-3.221-.921-3.221-.92 0-1.38-1.38-1.84-2.3-1.84.46-2.762 2.761-5.062 1.84-1.84-2.3-4.142-6.443-4.142-8.743h1.38c.46 1.84 1.84 4.6 2.762 5.98 2.3 1.38 3.682-1.838 5.062-2.76.46-2.3-2.762-1.38-3.222-3.681l-.46-.922 1.38-.92v1.38c.46.46 1.38 1.38 2.3.46v-2.76h2.762v9.203h14.725c-.459-.92.46-.46 0-.46l-3.22-4.14v-2.303l-.92-.92v2.762h-2.302v-2.762l-.46-.46v5.063h.46v-2.302h2.301v2.302h.921v-2.302l2.757 4.144z"/><path d="M154.94 137.06c1.38.46.46 0 1.842.46v-2.302h2.761v2.303h1.842v-.92s-.922-.922-.46-.922h2.302l.459.922c.46 0 1.38-.922 1.38-.922h1.841c-2.76 6.902-11.505 2.761-17.488 3.222 0-.46-2.3-.46-2.3-.46-4.603 0-4.14-1.38-8.744-1.84-.46 0-4.603-.922-4.603-.922h11.048s0 .922-.46.922c.46.46.919.46 1.38 0v-.922h4.602v1.38h1.38c0-.46-.46-1.38-.46-1.842h1.38c0 .922.46 1.383.46 1.842h.46v-1.842h1.38v1.843h-.002zm38.66 24.853c.46-.46.921-1.38 1.38-1.842 3.22-5.983 5.982-12.887 6.444-20.25 3.68-7.822 5.06-16.105 6.442-24.85-.46-1.38-.46-2.76-.92-4.14h-2.76c0 1.38.458 2.76.919 4.14-.46 8.745-4.603 16.567-6.442 24.85-.923 7.825-3.222 15.19-8.287 22.092h3.223zm-35.437-51.084h1.38-1.38z"/><path d="M206.946 110.829c-.46-5.523.46-11.047 0-16.568-.922-5.983-4.14-11.045-6.444-16.567-1.38-11.045-6.903-20.71-15.187-29.453-2.76-7.363-9.203-13.348-15.646-17.948-10.126-4.603-18.87-13.808-29.914-16.108-7.364 0-12.887-3.22-19.79-4.142-2.299 0-4.602-1.38-7.363-.92-3.22-.919-6.903-.46-10.125-.46-4.14.921-7.823 1.842-11.505 2.762-3.68 1.84-8.284 1.38-11.966 3.68-6.904 1.38-13.347 3.683-19.329 8.284-4.603 1.382-8.284 5.523-11.966 8.284-4.603 5.523-10.125 9.205-15.187 14.267-4.602 4.142-4.602 10.586-9.664 14.727-3.222 7.363-7.823 14.267-8.284 22.55-5.522 7.824-4.142 17.948-3.682 27.614h1.38c-.46-9.204-.92-18.409 3.682-26.232.92-8.744 4.602-17.028 9.205-23.93 4.141-3.683 3.68-9.666 8.284-12.888 2.3-2.76 4.601-5.062 7.823-6.902 5.522-6.443 11.505-12.887 18.868-15.647 5.523-3.221 10.126-7.364 16.568-7.364.92.46 1.38-1.38 2.761-.92 3.681-2.76 9.205-1.38 12.887-4.14 7.363-2.762 17.028-3.222 25.312-1.841 7.822 2.3 16.106 4.141 24.39 5.983 5.982 2.3 11.505 5.062 16.108 9.665 11.045 5.522 22.091 14.267 27.153 25.772 11.968 10.585 11.045 26.693 17.948 39.579 1.38 6.442 0 12.425.922 18.868h2.761v-.005z"/><path d="M143.437 78.613c0 .92-1.841.92-1.841-.46.459-.92 1.841-.46 1.841.46z"/><path d="M153.56 110.829c1.38-.46 2.761 0 4.603 0h1.38c1.38 0 2.3-.921 2.761-2.302.923-1.84 2.303-3.22 1.38-5.062-2.3-2.301.923-6.444-2.3-8.284 0-.46 0-.92.46-.92 1.383 2.301 2.764 5.062 3.683 7.363.92 1.84.46 4.141 1.38 5.983 2.3-1.38 5.983-1.38 7.365-4.141 0-2.761-4.603-2.761-2.303-5.983l.46-.46c.92.919.92 1.84.461 2.76 1.38 1.841 3.222 4.143 1.84 6.905-.92.92-1.38 1.38-2.3 1.84l1.842 2.302c.92-.46 1.841-1.381 2.3-2.302.921-1.84.921-4.141.46-5.983-.92-1.38-1.38-2.761-1.842-3.68 2.761.458 3.68 3.22 5.983 4.14.92-.46.46-1.38.46-1.84-7.364-6.443-14.266-13.346-22.091-18.868v-9.205l18.408 10.586c.92-.46.46-.921.46-1.38l-18.87-12.426v-1.84h-2.76v20.71h2.76V85.52l11.968 9.663c-1.38 1.38-1.38 3.222-1.38 5.062.459 1.38 1.38 1.84 2.3 2.762-.461.92-1.842 1.38-3.222 1.38 0-3.681-2.762-5.983-4.6-9.205 0-.92-.923-2.761-2.303-3.22-1.38 0-2.761 1.38-2.761 2.3V88.28h-2.761v8.283l2.76.46v-.919c.92 1.38 3.684 2.301 1.843 3.681-.923 0-1.38-.46-1.842-.92v-2.3h-2.761v7.823l2.76.92v-2.76c1.38.46 2.3 1.84 2.762 2.3-.92 1.38-.92 3.681-2.761 4.142v-4.142l-2.761-1.38v5.063h-.92v-2.762c-.46-.92-.922-2.3-.922-2.3v-35.9h-1.38v35.435l-1.38-.46V67.568h-1.38v34.517h-.92V67.568h-1.38v34.517l-1.38.92v-42.8h1.38v8.743h1.38v-8.743l.92.46v8.283h1.38v-8.284h1.38v8.284h1.38v-7.823h1.842v7.823h2.76v-7.363l9.207 3.22c.92 1.38 2.3 2.762 3.219 4.142l1.842-1.38c-.92-1.38-1.842-1.84-2.762-3.222-5.983-6.902-10.586-17.027-20.708-19.329-5.983-7.823-14.728-9.204-23.011-12.426l-15.185-3.22c-1.842-1.38-1.38-3.681-3.222-4.14-.921 1.38-1.38 2.76-2.761 4.601-10.585-.92-19.33 5.523-29.914 6.442-6.904 8.284-18.41 9.665-24.39 18.408-4.142 5.983-10.126 11.966-11.047 19.79-6.444 9.204-8.743 20.708-9.664 31.754v4.603h3.22c-.459-5.983-.92-11.507 1.382-17.029 1.84-6.902 3.68-13.806 8.284-19.328 3.682-13.807 15.646-24.852 28.073-30.835 6.903-7.823 17.488-6.902 25.772-10.584 2.3-.46 5.062-.921 6.902 0 0 0 0 .459-.459.459l2.301.46c.46-1.38 1.38-2.761 2.3-4.601v-.921c.461 4.603 0 7.823 0 11.505-1.38-1.38-2.3-2.761-3.22-3.682 0-.92.919-1.84.919-2.3l-1.84-.461-1.38 1.38c-3.221.46-6.444.46-9.664 1.38.92 2.3 3.22 5.062 5.062 6.904l.92-1.38c-.92-.921-2.302-2.301-2.762-3.682 3.682.92 7.364 2.76 10.586 3.682-1.381 3.68-3.222 6.902-5.983 10.124 0-2.761.46-4.602.46-7.363-.92-1.38-1.84-2.3-2.76-3.222l-.92 1.38c.92.921 1.38 1.38 1.84 2.301 0 2.3 0 4.141-.46 6.443-1.84.46-2.762 1.38-3.681 3.22l1.38.461c.92-.46 1.381-.92 2.3-1.38 0 .46-.459 1.84.46 1.84 3.221-.92 5.983-3.221 9.206-4.601.92.46 1.38.46 2.3.92l.919-1.84c-1.38-.461-2.3-.922-2.762-1.38-.459-1.841-.459-4.604-.459-6.444 2.762 3.22 6.442 6.902 8.284 10.584-1.38-.46-4.141-1.84-5.983-2.76l-.46 1.38c2.302 1.38 5.983 3.681 8.744 4.14l.46-.459c-.46-3.221-1.841-6.443-2.302-10.125 1.383-2.301 4.144-4.602 5.983-6.903.46-.92 1.38-1.38 1.38-2.3-2.3-.46-5.522-.46-7.822-.921l.46 1.841 4.143.46c-2.761 1.38-6.905 2.3-9.206 3.221h6.445c-.46.92-1.383 2.3-2.302 2.761-2.3-.46-4.142-1.38-6.442-2.3.92-1.38 1.839-2.762 3.219-4.603l4.603.46v-1.842c-1.38 0-2.3 0-3.681-.459l-.922-1.84c10.125.92 19.789 4.142 28.994 8.744l7.364 5.983c7.364 2.761 11.503 8.284 15.647 13.346-2.303-.46-5.526-1.38-7.825-2.762l-36.817-13.806c-.46 0-.46.921 0 .921 10.125 5.062 20.25 9.205 30.833 13.346-2.762-.46-5.98-1.38-8.742 0-6.905-4.141-13.808-7.823-21.631-11.506-.92.46-.46.46 0 1.38 5.983 3.681 11.965 6.904 18.408 11.045-1.38.46-2.761.46-4.141.46l.459 1.841c3.222.46 5.983 0 8.744-.92v42.804c0 .92-.459.92-1.839 1.84-.922 0-1.383.46-1.842.92.46.46 0 .92.46.92-.46.92-1.84 3.683-3.681 2.301-.46.46-.46.46-.46.921v.46c.46.46.921.92.46 1.38-.92.92-1.842-.46-2.762.92 0 .922 1.38.922 2.3 1.38-.46.46-.46.92-.46 1.842l1.842-.922c0-1.378.46-1.84.46-2.76.92-3.222 5.522-3.222 5.522-6.444 2.302-1.84 4.603-2.3 6.903-1.38l.922.46c-.922.46-1.38.46-2.302.46l.922 1.84c.92-.459 1.839 0 1.839.92.46.92-.46.92-.92.92-1.38 0-2.3 0-3.221-.92.46-.46 1.841-.92 2.302-.92l-.46-1.84c-1.38 0-2.762.46-3.222 1.84 0 1.38.46 2.301 1.38 3.222l3.221 1.38c-.46-.46 0-.46-.46-.922.462-.454.922-.454 1.381-.454z"/><path d="M55.996 89.198v12.887c-1.84 2.76-5.062 6.442-7.364 8.744h3.222c1.38-1.842 2.761-3.222 4.141-4.603v4.603h2.761V61.125s1.84.46 1.84 1.38v48.323h1.382V63.427l.92-.46v48.781h1.38V62.506h.46l.462 48.782h1.38l-.46-49.241s.92-.46.92 0v48.783h2.301V61.586h.92v49.243h1.841V61.586c11.966.92 28.534-7.823 34.977 5.523-.92-.46-2.3-2.761-3.682-1.38.92 1.84 3.222 2.761 4.143 5.062-2.301-2.3-5.063-2.3-7.363-4.141-1.38-.46-2.762-1.38-4.143 0 .46 1.84 2.3.92 3.68 1.38 2.762 1.38 6.444 3.222 7.826 5.983-.921 0-2.301-1.84-3.683-.921.46 1.84 2.762 2.3 3.683 3.682-.921 0-2.762-2.3-4.143-.46 1.38.92 3.222 2.3 4.143 4.142-1.382 0-3.222-1.84-4.143-.46 1.38 1.38 3.682 1.84 4.143 4.142-.921.92-2.762-1.84-3.222.46.92.92 2.761 1.38 3.222 2.76-1.382 0-3.222-1.84-4.603-.458 1.38 1.38 4.142 1.84 4.603 4.14-1.382 0-3.222-2.3-3.683 0 .92 1.38 4.602 1.38 3.683 4.142-1.382-.46-2.301-2.3-3.683-1.84l-.46.92c.92 1.38 4.143 1.84 4.143 3.68-1.382 0-3.683-2.3-5.063 0 1.84.46 4.142 1.38 5.063 3.222v.92c-4.603-.92-8.745-4.142-14.267-2.76 0 .46.46.92.46.92 5.523 0 10.124 1.84 14.267 4.141v.46c-1.84.461-3.222-1.38-5.062-.46.92 1.84 3.682 1.38 4.603 3.222v.92c-1.381-.46-2.761-1.84-4.143-1.38-.46 2.3 2.762 1.84 4.143 3.221v.46h3.222c.459-.46 1.38-.92 2.3-1.38 2.299-.46 4.14-.46 6.902-.921 0-.46-.92-.92-.92-1.38-3.222.459-5.983.459-8.744 1.38-.46-.92.46-2.301 1.842-2.301 1.839-.92 4.6-.46 6.902-.92.46-.92-.46-.92-.922-1.38-2.761 0-5.523.46-7.822.92.92-.92 2.761-1.84 4.141-2.301.46-.46 2.3.46 2.3-.92-.92-1.38-3.22 0-4.6 0-.461.46-.923.92-1.842.92-.92-1.84 1.841-2.3 2.76-2.761.92-.92 3.222 0 3.222-1.84-1.841-.46-4.14.46-5.982 1.38-.46-.46 0-.92-.46-1.38 2.301-1.38 4.602-1.841 6.902-2.762 0-.46-.46-.92-.46-.92-2.302 0-4.14.92-6.444 1.84v-1.38c1.842-2.301 5.063-1.84 7.364-2.76 0-.921-.46-.921-.92-1.382-2.302.46-4.14.92-6.444 1.382.46-1.382 2.761-1.382 3.683-2.301 1.38-.46 2.761-.46 4.141-1.381 0-.46-.46-.92-.922-.92-2.3 0-4.6 1.381-6.902 1.84.922-3.221 5.522-2.3 7.364-4.601-2.3-.92-5.06.46-7.364 1.38-.46-1.38 1.38-2.301 2.302-2.762 1.84-.92 4.141-.46 5.98-1.38 0-1.84-2.3-.92-3.68-.92-1.842 0-3.222 1.841-4.603 1.38 0-.92 1.38-1.84 2.302-2.3 1.839-.46 4.14-.92 6.442-1.84-1.38-1.38-3.681-.46-5.061 0s-2.761.92-3.683 1.38c.922-3.222 5.063-3.222 7.824-4.142 0-.92-.46-1.38-.922-1.38-2.761 0-5.06 1.38-6.902 1.84 0-1.38 1.38-1.38 1.841-2.3 2.3-.46 4.141-1.84 6.442-1.84l.922-.921c-1.38-1.38-3.683-.46-5.063.46l-4.141 1.38c-.46-.92.46-1.84 1.38-2.761-.46-.46-.92-.46-1.38-.46-.92-2.762 4.603-1.841 1.842-4.142l-1.38.46c.46-1.38 1.841-3.221 3.68-3.681 6.905-4.602 14.267-.921 23.011-.46l-.46-1.841c-2.3 0-2.761-.46-4.141-.46-3.22-3.221-6.903-6.443-10.123-8.744-.46.46-.46 1.38-.46 1.84l6.441 5.984c-1.839-.46-5.06.92-6.442-1.84-1.841 0-1.841 2.76-4.14 1.84-.923-1.38-.923-3.22-2.303-4.142-1.38 0-1.38 1.38-.92 1.84.46.92.92 1.841.92 3.223l-1.84.459c-1.38-1.84-.46-5.523-2.76-6.903l-.923.46c.923 2.76 1.38 5.982 1.842 8.284-1.38.92-2.3 2.301-3.682 3.22-.46-1.84.92-3.681.46-5.522-.46-2.3 1.38-4.141 0-5.983-1.84 2.301-1.84 5.523-2.76 8.285-.461.46-1.38-.92-1.841-1.38.46-2.302 2.3-4.142 2.3-5.983-3.221 0-2.76 4.602-5.522 5.063-.92-.46.92-2.301-.46-2.301-1.379 0-2.3 1.84-4.142 1.38 0-.92 1.38-2.762 1.84-3.22l-1.38-1.38c-.92 1.38-2.76 3.22-3.681 4.14-.92.461-1.84 0-2.762 0 2.301-3.221 5.983-6.902 9.205-9.663 0-.92-.459-1.38-.92-1.38-4.601 2.761-7.364 7.363-11.505 10.584-2.3 1.84-5.522 1.84-8.284 1.84 6.444-4.14 12.427-8.743 18.869-13.346.46-.92-.46-.92-.46-1.38-3.683 2.3-7.824 4.601-10.585 7.363-4.602 2.3-8.284 5.062-11.966 7.823h-4.602c-.92 0-7.363.92-7.363 1.38-.92-1.38-2.3-1.84-3.682-2.3-.92.46-2.3.919-2.761 1.84v12.886L39.43 85.062v.92h1.38c5.062-2.762 10.126-6.444 15.188-9.666v9.205l-20.712 21.165c0 .46-.459.92-.459 1.84l.92-.458 20.25-18.87z"/><path d="M105.7 110.829c-.922-.46-1.841-.921-3.223 0h3.222zm78.696 0c-.46-4.603-1.38-9.205-.46-13.808-3.222-9.665-2.762-20.71-10.587-29.913l-1.38 1.38 5.526 8.283c2.3 7.365 2.3 15.647 5.06 23.011-.92 3.683 0 7.365.46 11.047h1.38zm-33.137 98.484c.46 1.38 0 3.684-1.841 3.684-1.38 0-2.762-.46-2.762-1.842 0-1.381.46-2.761 1.842-3.222.92 0 2.3 0 2.761 1.38zm-5.06 2.762c0 1.38-.923 2.76-2.303 3.221-.92.46-2.3-.46-3.221-1.841 0-1.38.922-2.762 2.302-3.22 1.38 0 2.761.458 3.222 1.84zm-69.033 1.841v.46c.46-.921 2.3-1.38 3.221-.46 1.38.46 1.38 1.842.92 3.222-.46.92-1.84 1.38-3.22.46-.46-.46-.921-1.38-.921-2.3-.92.92-2.762 1.841-4.142.92-.92-.92-.92-2.3-.92-3.22.46-.46 1.38-.922 2.3-1.38.921-.002 2.303.917 2.762 2.298zm63.05-.461c0 1.38 0 2.76-1.842 3.221-1.38.46-2.761-.46-3.222-1.841 0-1.38.46-2.3 1.842-2.762 1.38-.457 2.76.002 3.222 1.382zm-5.065 1.841c.46 1.842-.46 3.222-1.84 3.681-1.38 0-2.76-.459-3.22-1.839.46-1.38.46-3.222 2.299-3.222.923 0 2.303.46 2.76 1.38zm-49.241 0c.459.46.92 1.38.459 2.3-.92.922-1.84 1.842-3.222 1.38-1.38-.92-.92-2.3-.92-3.68.922-.92 2.762-1.38 3.683 0zm5.983 1.38c0 1.842-.921 3.222-2.301 3.222-1.38 0-2.761-1.38-2.761-2.761 0-.922.92-1.842 1.84-2.302 1.381 0 2.761.922 3.222 1.841zm37.737.462c0 1.38-.46 2.3-1.84 3.222-.922-.46-2.76-.46-3.221-1.842-.46 1.38-1.38 2.3-2.3 2.3-.922 0-2.302-.46-2.302-1.38-.459-1.842 0-3.222 1.842-3.681.92.459 2.3.92 2.761 1.839 0-.92.92-1.84 1.842-2.3 1.379 0 2.759.46 3.218 1.842zm-32.675.458c0 1.38-.46 2.302-1.38 2.764-1.38 0-2.3-.922-3.22-1.842-.46-1.38.459-2.302 1.38-2.761 1.38-.46 2.76.459 3.22 1.839zm5.522.462c-.46.92-.46 1.841-1.38 2.302-.92.459-1.84.459-2.76 0-.922-.922-.922-2.302-.461-3.222.92-1.381 4.141-1.381 4.601.92zm11.047.46c.459 1.38-.46 2.3-1.842 2.761-.92.46-1.842 0-2.761-.46-.46-.46 0-.92-.921-1.38-.46.922-.92 2.302-2.3 2.302-1.38-.46-2.762-.922-2.762-2.764 0-.92.92-2.3 1.84-2.3 1.84-.46 2.762.92 3.682 2.3 0-.92.46-2.3 1.38-2.3 1.38-.461 3.222 0 3.684 1.841zm5.522-.46c.46 1.841 0 3.221-1.38 3.221-1.38.46-3.221 0-3.221-1.38-.46-1.38 0-2.302.92-3.221 1.378-.462 3.22-.462 3.681 1.38zM78.546 71.71c0 .46-.46 1.84-.46 1.84h1.38l-.92-2.761v1.381l-1.84.46c.458-.46.919-2.762.919-3.222.92 0 2.3-.46 2.3 0 0 1.84.922 5.522 1.38 6.443-.458.46-1.38.46-1.38.46l-.458-1.38c0-.46-1.38 0-1.38 0-.46.46 0 .46-.46 1.38h-1.38c.46-1.38.46-3.223.919-4.603h1.38v.002zm22.091 83.757h-4.141l-.46-1.38h3.68v-1.38c-1.38-.459-3.22-.459-4.601-.459 0-.922-.46-.922 0-1.38 2.3.46 6.442.46 7.823 1.84h-4.141v1.38h4.601l-.92 1.38h-1.84v3.22c1.379-.46 2.3-.46 3.681-.46 1.38.923 3.681 1.842 5.521 1.38l-.459-2.3c-1.381 0-2.302-.46-3.682-1.38 0-1.38 1.84-1.38 2.761-1.84 1.38-.46 2.76 0 3.683.46l1.38-1.842c-.46-.46-.923-.46-.46-1.38.46-.46.919-.46 1.38-.46 0 .46.46 1.84.46 2.3l2.76-.46c-1.84-1.38-.921-3.68-.46-4.141h-1.38c-.92.46-2.3.922-4.603 1.841h-.459c.92-1.38 2.3-2.302 3.681-2.76l.46-2.303c-.46 0-1.38.46-1.38.46l-2.76 1.38c-.923-2.3 2.299-1.841 3.68-3.221 0 0 .92-.46 1.38-.46l-.46-1.38c-1.38.46-3.22.92-4.6 1.38-.923-1.38.919-1.841 1.838-2.302.46-.459 1.842-.92 2.762-.92v-1.38c-1.38 0-3.22.461-4.142.92h-.92c0-2.3 3.223-2.3 5.062-3.219.922.92 3.221-.922 3.221.92-.92.92-2.3 1.38-3.68 1.38v1.38h3.68l.46.92c-.46 0-.46.46-.46.46-1.38 0-2.76 0-3.68.46l.459 1.38c.922 0 1.841-.46 2.76 0 .461 1.84-1.38 1.84-3.68 1.84l-.46 2.301c1.38 0 1.38-.46 1.841-.46 0 .92 0 1.38-.46 1.38l1.38.46c.46-.922.922-.922 1.38-1.841.922-.46 1.842-.92 3.222-.92s3.221.92 3.683 2.3v.46l1.38.92c0-.92 2.3-.46 2.761 0-.46 0-.922.46-.922.46l2.761.92 1.38-.46 5.064.92h-3.684l.46 2.3h13.807l-.46-2.762c-1.379 0-2.76-.459-4.14-1.38-6.905-.92-14.727-.92-20.712-5.983h-2.3c.92-2.3-.919-5.522-.46-7.822H103.857c1.38 1.38 4.14 1.38 4.6 3.681-1.84.46-3.681-2.3-5.061-.459 1.84.92 4.601 1.84 5.062 4.141-1.84 0-4.141-2.76-5.062-.46 1.38 1.38 4.601 1.38 5.062 4.141-1.38 0-4.141-3.222-4.602-.46 1.38.922 5.062 1.38 4.602 4.144-1.84-1.38-5.062-2.303-6.904-2.764v1.841c.92.46 1.84.923 2.761 1.38-1.381-.459-10.584-1.38-9.204-2.76 2.3 0 6.442 1.38 7.363 1.84V148.1c-1.84-.46-4.142-.92-5.983-.92-3.682 1.38-5.062-3.68-8.284-4.603l-2.301-2.761c.92-.92 3.22-.46 4.602-1.84-1.84-1.84-4.143 0-6.444-.46 0 0-1.38-.92-2.761-1.38h-4.141c1.84.92 3.682 1.842 5.522 3.222 3.681 5.06 9.205 7.822 11.045 13.806.92 4.142 3.681 6.903 6.903 8.745 2.3.92 4.141 1.839 6.443 2.76 5.983.92 11.506 1.38 17.489-.46.92-.92 1.841-1.38 2.3-2.3.921-1.38 1.38-2.301 1.84-3.682 1.38 0 2.3.922 3.223 1.38.459.46.92.922 1.38 2.76l2.76-.919c-1.38-2.761-1.38-1.842-1.38-2.761 1.84-.92 3.22 0 3.682 1.842.46 3.219 1.38 5.98 1.841 8.744l2.3-1.38c-1.38-3.222-1.842-6.445-2.761-9.666 4.744.46 9.522.46 14.266 0 2.3 2.76 2.3 6.902 4.142 10.125v.922c-.92 0-1.38.46-1.842.92l.922.92c1.842-1.38 3.68-2.3 5.523-3.22 0 0 4.14-4.144 5.06-5.525l2.303-4.6c.459-.46.92-1.842.92-2.762l-1.843-.46c-1.38 4.603-5.522 8.744-8.283 12.887l-.46-.46c-.92-2.762-2.76-5.523-3.682-8.284 3.222-.46 1.38-3.222 2.303-5.061 3.68-.46 6.442-1.38 9.663-2.762l.92 2.3c0 .92 0 1.38-.46 1.842l1.841.459c.92-2.761 2.3-5.523 4.141-8.284l-1.38-.92c-.92 1.84-1.841 2.762-2.76 4.603-.461 0-.92-.922-1.38-1.38 1.38-3.683 5.06-6.444 5.982-10.125.92 0 .92.46 1.38 1.38-.46 1.84-2.302 4.6-3.683 6.442l1.38.92c.922-1.38 2.302-3.681 3.221-5.061.46-2.3 1.38-4.603 2.302-6.903h-1.841c0 .46-.46.92-.46 1.38-.92-.46-.92-.92-1.38-1.38h-3.222c-.92 3.222-3.22 6.903-4.6 9.664 0 0-.923 1.38-2.303 2.761-1.38.922-3.68 1.38-3.68 1.38-3.681.46-10.587 1.842-15.647 1.38l.92 2.762c2.76.46 6.444.46 8.743 0v1.38h-25.311l-.46-.92c.921 0 3.22-.46 4.602-.46l-1.38-2.3-5.06.46 2.299-.922-3.222-.92s-.92.461-1.38.92c0-.459-.459-1.38-.459-1.38l-1.38-.92c-.46.92-.922 2.3-.46 3.222.92 1.84 2.761 2.762 3.68 3.681-1.38 1.38-3.68 0-5.522 0-2.3-1.38-4.603-1.841-5.523-3.68l-2.3.459c0 .922 0 .922.46 1.38 0-.46-1.38-.92-2.3-1.38l-1.38 1.841c.92.46 1.842.92 1.842 1.842-.922.46-2.761.46-4.603.92l.46 2.3h1.84c1.38-.46 2.761-.46 4.141-1.38 3.683 0 6.905.46 10.586.46 0 1.38-.92 3.221-2.761 4.14-8.284 1.842-17.95.92-24.391-4.602.92 0 1.84 0 2.3.46l-.456-3.219zm43.26-85.137c.46.459-.46.92-.92.92h-.922c0-.92.922-.92 1.841-.92zm-.46-4.143c.46.921.46.921 0 1.38h-.922c0-1.38.462-.92.922-1.38zM91.432 192.746c0 .92-.92 1.842-.92 2.761-.46 2.761-1.38 5.523-1.38 8.744-.92.46-1.38-.46-2.301 0-.92-.92 0-2.3 0-3.221.46-2.762 1.84-5.061 1.84-8.284.46-.46 1.842-.92 2.761 0zm44.641 2.761c.46.46 0 .92 0 1.842-.46.459-1.38.459-1.842.459-.46-.92-1.841-1.38-.92-2.3 0-.46.46-1.38.92-1.38.92 0 1.382.46 1.842 1.38zm-51.544 0c.46.92-.46 1.38-.92 1.842-.46 0-1.38 0-1.84-.46-.46-.461-.46-1.38 0-1.842 0-.46.459-.92.92-.92.46 0 1.38.46 1.84 1.38zm44.181-1.842c.46.923.92 2.303 0 3.222.46.46 2.3.46 2.761 1.38.462.92.92 2.302.46 3.222-1.38 2.3-3.683 4.141-5.982 4.141-1.38 0-2.761 0-3.681-.46-1.38-.92-1.842-2.762-1.38-4.142.46-.92.92-1.841 1.38-2.3-.46-.921-1.38-1.38-1.38-2.301 0-1.84 1.38-3.22 2.759-3.681 1.382-1.38 4.144-.92 5.063.92zm-4.142.923c-.46.459-1.38.92-1.38 1.839.92.46 1.841.46 2.76.46.461 0 .92-.46.92-1.38.46-1.38-1.38-1.842-2.3-.92zm4.142 4.6c-1.842 0-4.141 0-5.063 1.382-.46.92-.46 1.84.46 2.3 1.38.46 3.222.46 4.603-.92.46-.46.92-1.38.92-1.841l-.92-.921zm-11.967-3.22c0 .46-.46.46-.92.46-.92.46-1.38-.46-2.3-.92-.921-.46-1.84 0-2.76.46-.923.92-.923 1.84-1.38 2.762h.459c1.38-.46 4.141-1.842 5.522-.46 1.38.46 1.842 1.841 2.302 3.221.46 1.842-.46 3.681-1.841 4.603-2.762.92-5.523.46-7.363-1.38-1.84-2.302-1.84-6.444-.46-8.744.92-.922 2.3-2.302 3.681-2.302 1.84-.46 4.14.46 5.06 2.3zm-5.523 4.602c-.92.46-1.38 1.38-1.38 2.3.46.92 1.842.92 2.303 1.38 1.38.46 2.3.46 3.219-.92 0-.922.46-1.841 0-2.76-1.38-.92-3.22-.46-4.142 0zm-9.663-6.443c.92 1.38 1.84 2.761.92 4.141-.46.46-1.38.46-.92 1.38 1.38.922 1.84 2.302 1.84 3.684 0 1.381-1.38 2.3-2.761 3.219-2.761.46-5.062 0-6.903-1.84-.46-.921-1.38-1.841-.92-3.221.459-.92 1.38-2.302 2.76-2.761 0-.922-1.38-1.842-.458-3.222 0-1.38 1.84-2.3 2.76-2.3 1.841-.461 2.762.458 3.682.92zm-3.22.92c-.461.46-1.382.922-.922 1.841 0 .46.46.92.921.92.46 0 1.38 0 1.84-.46.46-.46.46-.921 0-1.38-.46-.46-.92-.921-1.84-.921zm-.461 5.063c-.921.46-2.301.46-2.301 1.842-.92.92 0 1.38.92 1.839.92.46 2.762 1.38 3.683 0 .46-.46.92-.92.46-1.38-.461-1.381-1.382-2.3-2.762-2.3z"/></g></svg>