<?xml version="1.0" encoding="UTF-8"?>
<svg width="289px" height="89px" viewBox="0 0 289 89" version="1.1" xmlns="http://www.w3.org/2000/svg" xmlns:xlink="http://www.w3.org/1999/xlink">
    <title>UCBerkeley_wordmark_white</title>
    <defs>
        <polygon id="path-1" points="0.1 0.518 74 0.518 74 62.94 0.1 62.94"></polygon>
    </defs>
    <g id="UCBerkeley_wordmark_white" stroke="none" stroke-width="1" fill="none" fill-rule="evenodd">
        <path d="M27.2,65.478 C22.789,65.478 18.378,64.428 13.757,64.428 C9.346,64.428 7.036,64.848 3.676,64.848 C2.625,64.848 1.89,64.742 1.89,63.693 C1.89,62.642 2.52,62.432 4.83,62.432 C9.556,62.432 9.767,62.223 9.767,60.648 L9.767,12.337 C9.767,4.041 8.085,3.096 5.146,3.096 C0.419,3.096 0,2.99 0,1.73 C0,0.995 0.314,0.89 2.099,0.89 C5.356,0.89 8.611,0.995 12.287,0.995 C14.492,0.995 19.534,0.365 28.985,0.365 C42.639,0.365 48.52,7.401 48.52,14.857 C48.52,22.314 44.004,25.99 40.643,28.3 C38.647,29.666 36.336,30.821 36.336,31.136 C36.336,31.346 38.332,31.871 40.433,32.921 C45.368,35.442 51.566,39.013 51.566,48.15 C51.566,59.912 41.799,65.478 27.2,65.478 M25.834,2.885 C18.903,2.885 18.589,3.83 18.589,5.93 L18.589,28.721 C18.589,30.401 19.953,30.191 22.474,30.191 C28.88,30.191 33.291,30.821 33.291,30.821 C36.336,28.511 39.803,26.515 39.803,18.219 C39.803,12.968 35.392,2.885 25.834,2.885 M22.37,32.185 C19.429,32.185 18.589,32.606 18.589,34.917 L18.589,53.715 C18.589,54.662 18.903,60.541 19.848,61.593 C21.004,62.853 24.364,63.588 27.726,63.588 C35.706,63.588 41.588,58.126 41.588,48.99 C41.588,39.537 33.817,32.185 22.37,32.185" id="Fill-1" fill="#FFFFFE"></path>
        <path d="M85.045,39.398 C82.67,39.947 73.535,41.957 63.124,42.596 C61.66,42.688 61.386,43.144 61.386,45.245 C61.386,57.852 71.16,61.23 78.104,61.23 C84.132,61.23 87.421,59.038 87.969,59.038 C88.426,59.038 88.7,59.586 88.7,59.77 C88.7,60.225 80.936,65.98 73.535,65.98 C66.046,65.98 54.901,62.326 54.901,47.072 C54.901,34.192 63.58,26.518 71.891,26.518 C76.642,26.518 82.488,29.534 85.776,33.37 C87.33,35.197 88.791,37.389 88.791,38.119 C88.791,38.485 87.513,38.85 85.045,39.398 M70.979,28.438 C64.036,28.438 61.843,38.85 61.843,40.13 C61.843,40.587 61.843,40.678 62.94,40.678 C67.69,40.678 72.622,39.489 79.473,38.393 C80.479,38.211 80.57,38.028 80.57,37.48 C80.57,35.197 75.181,28.438 70.979,28.438" id="Fill-2" fill="#FFFFFE"></path>
        <path d="M118.479,36.932 C117.2,36.932 116.104,33.187 111.536,33.187 C106.238,33.187 104.229,35.379 104.229,39.215 L104.229,58.033 C104.229,62.509 104.502,62.509 111.262,62.509 C113.637,62.509 113.728,62.783 113.728,63.605 C113.728,64.611 113.637,64.52 111.262,64.52 C109.982,64.52 103.863,64.063 100.939,64.063 C97.834,64.063 94.729,64.52 93.45,64.52 C91.348,64.52 91.165,64.52 91.165,63.605 C91.165,62.691 91.256,62.509 93.45,62.509 C97.194,62.509 97.468,62.418 97.468,61.139 L97.468,36.11 C97.468,29.898 97.65,29.717 92.537,29.717 C90.891,29.717 90.891,29.808 90.891,28.803 C90.891,27.705 90.799,27.432 92.354,27.432 C95.459,27.432 97.194,27.614 99.022,27.614 C100.482,27.614 102.217,27.158 103.681,27.158 C104.046,27.158 104.412,27.432 104.412,28.164 C104.412,28.621 104.229,30.63 104.229,30.904 C104.229,31.726 104.319,32.365 104.686,32.365 C106.056,32.365 110.349,27.614 114.641,27.614 C116.287,27.614 120.487,29.625 120.487,32 C120.487,32.913 119.026,36.932 118.479,36.932" id="Fill-3" fill="#FFFFFE"></path>
        <path d="M161.686,64.885 C160.59,64.885 159.403,64.794 158.581,64.794 C157.485,64.794 154.744,64.885 153.467,64.885 C151.82,64.885 150.998,62.6 147.162,58.216 C143.326,53.832 139.487,48.076 138.939,48.076 C138.574,48.076 137.295,48.99 135.742,49.994 C134.281,50.908 133.002,51.549 133.002,52.371 L133.002,58.125 C133.002,62.417 132.819,62.417 138.482,62.417 C140.583,62.417 140.948,62.874 140.948,63.605 C140.948,64.52 140.492,64.52 138.482,64.52 C137.112,64.52 132.911,64.337 129.988,64.337 C126.881,64.337 123.502,64.52 122.223,64.52 C120.122,64.52 119.574,64.428 119.574,63.605 C119.574,62.874 120.031,62.417 122.223,62.417 C125.328,62.417 126.151,62.417 126.151,61.047 C126.151,58.398 126.425,31.36 126.425,12.086 C126.425,5.601 125.694,4.779 123.228,4.779 C119.483,4.779 119.118,4.505 119.118,3.864 C119.118,2.951 119.3,2.585 120.305,2.585 C126.881,2.585 132.271,0.576 133.093,0.576 C133.55,0.576 133.733,0.85 133.733,1.398 C133.733,2.585 133.55,6.423 133.55,9.346 C133.55,23.23 133.002,33.461 133.002,48.35 C133.002,48.716 133.093,48.99 133.368,48.99 C135.651,48.99 145.153,40.587 148.076,37.845 C151.639,34.466 152.46,32.913 152.46,30.995 C152.46,29.534 152.186,29.351 148.167,29.351 C146.797,29.351 146.34,29.168 146.34,28.346 C146.34,27.614 146.797,27.431 147.984,27.431 C148.896,27.431 150.633,27.705 151.729,27.705 C152.916,27.705 158.215,27.431 159.311,27.431 C160.042,27.431 160.407,27.523 160.407,27.797 C160.407,28.62 157.303,32.548 154.471,35.288 C149.902,39.765 144.239,43.783 144.239,44.423 C144.239,45.245 145.883,46.98 152.277,54.654 C155.385,58.398 158.307,62.874 161.412,62.874 C163.604,62.874 164.335,63.332 164.335,64.063 C164.335,64.701 163.695,64.885 161.686,64.885" id="Fill-4" fill="#FFFFFE"></path>
        <path d="M191.559,39.398 C189.183,39.947 180.049,41.957 169.636,42.596 C168.174,42.688 167.9,43.144 167.9,45.245 C167.9,57.852 177.673,61.23 184.615,61.23 C190.644,61.23 193.934,59.038 194.482,59.038 C194.938,59.038 195.212,59.586 195.212,59.77 C195.212,60.225 187.447,65.98 180.049,65.98 C172.558,65.98 161.414,62.326 161.414,47.072 C161.414,34.192 170.092,26.518 178.404,26.518 C183.154,26.518 189,29.534 192.29,33.37 C193.842,35.197 195.304,37.389 195.304,38.119 C195.304,38.485 194.025,38.85 191.559,39.398 M177.49,28.438 C170.549,28.438 168.357,38.85 168.357,40.13 C168.357,40.587 168.357,40.678 169.453,40.678 C174.201,40.678 179.134,39.489 185.986,38.393 C186.99,38.211 187.082,38.028 187.082,37.48 C187.082,35.197 181.693,28.438 177.49,28.438" id="Fill-5" fill="#FFFFFE"></path>
        <path d="M211.672,64.52 C210.301,64.52 208.293,64.336 206.647,64.336 C203.542,64.336 198.701,64.52 197.422,64.52 C195.32,64.52 195.137,64.336 195.137,63.606 C195.137,62.967 195.229,62.418 197.422,62.418 C201.167,62.418 202.72,62.509 202.72,60.865 L202.72,10.533 C202.72,4.778 202.172,4.778 198.063,4.778 C196.418,4.778 195.503,4.597 195.503,3.589 C195.503,2.494 196.234,2.585 197.788,2.494 C204.913,2.038 208.383,0.484 208.932,0.484 C209.389,0.484 209.844,0.941 209.844,1.945 C209.844,3.041 209.389,6.332 209.389,9.071 C209.389,43.875 208.932,51.09 208.932,53.74 C208.932,61.321 209.571,62.326 211.215,62.326 C215.782,62.326 215.6,62.873 215.6,63.606 C215.6,64.52 214.959,64.52 211.672,64.52" id="Fill-6" fill="#FFFFFE"></path>
        <g id="Group-10" transform="translate(214.000000, 26.000000)">
            <mask id="mask-2" fill="white">
                <use xlink:href="#path-1"></use>
            </mask>
            <g id="Clip-8"></g>
            <path d="M30.247,13.398 C27.872,13.947 18.737,15.957 8.323,16.596 C6.862,16.688 6.586,17.144 6.586,19.245 C6.586,31.852 16.362,35.23 23.303,35.23 C29.333,35.23 32.622,33.038 33.168,33.038 C33.625,33.038 33.899,33.586 33.899,33.77 C33.899,34.225 26.135,39.98 18.737,39.98 C11.245,39.98 0.1,36.326 0.1,21.072 C0.1,8.192 8.78,0.518 17.092,0.518 C21.842,0.518 27.69,3.534 30.977,7.37 C32.53,9.197 33.991,11.389 33.991,12.119 C33.991,12.485 32.711,12.85 30.247,13.398 M16.178,2.438 C9.237,2.438 7.043,12.85 7.043,14.13 C7.043,14.587 7.043,14.678 8.139,14.678 C12.891,14.678 17.823,13.489 24.674,12.393 C25.678,12.211 25.772,12.028 25.772,11.48 C25.772,9.197 20.379,2.438 16.178,2.438" id="Fill-7" fill="#FFFFFE" mask="url(#mask-2)"></path>
            <path d="M71.625,3.625 C69.616,3.625 65.596,14.587 58.381,32.125 C52.624,46.1 48.514,53.5 45.592,59.529 C44.588,61.539 43.491,61.63 41.481,61.904 C38.741,62.27 38.102,63 36.092,63 C34.538,63 33.625,62.544 33.625,62.087 C33.625,61.539 37.918,60.991 41.024,57.063 C44.313,52.952 52.168,42.173 52.168,39.434 C52.168,38.428 44.862,21.527 39.836,9.653 C37.553,4.173 36.913,3.716 35.27,3.716 C33.442,3.716 33.352,3.625 33.352,2.803 C33.352,1.981 33.625,1.523 35.27,1.523 C37.827,1.523 38.467,1.705 40.659,1.705 C43.215,1.705 46.413,1.431 49.336,1.431 C51.254,1.431 51.62,1.797 51.62,2.803 C51.62,3.625 51.254,3.716 49.336,3.716 C47.145,3.716 46.596,4.264 46.596,6.365 C46.596,9.014 48.971,12.211 54.452,26.279 C55.184,28.197 56.28,29.75 56.645,29.75 C57.284,29.75 57.833,28.471 59.293,24.177 C61.485,17.601 64.774,8.1 64.774,6.822 C64.774,4.082 64.774,3.534 61.668,3.534 C58.838,3.534 58.471,3.534 58.471,2.62 C58.471,1.431 58.745,1.431 60.389,1.431 C62.856,1.431 64.499,1.614 66.967,1.614 C68.338,1.614 70.803,1.249 72.083,1.249 C73.543,1.249 74,1.34 74,2.346 C74,3.168 72.721,3.625 71.625,3.625" id="Fill-9" fill="#FFFFFE" mask="url(#mask-2)"></path>
        </g>
        <path d="M12.441,87.662 C9.446,87.662 7.93,85.969 7.93,83.223 L7.93,75.255 L10.051,75.255 L10.051,83.33 C10.051,84.863 10.694,85.861 12.441,85.861 C14.17,85.861 14.811,84.863 14.811,83.348 L14.811,75.255 L16.933,75.255 L16.933,83.205 C16.933,85.969 15.418,87.662 12.441,87.662" id="Fill-11" fill="#FFFFFE"></path>
        <polyline id="Fill-12" fill="#FFFFFE" points="27.217 87.467 22.065 79.266 22.03 79.266 22.03 87.467 19.908 87.467 19.908 75.45 21.958 75.236 26.932 83.277 26.986 83.277 26.986 75.254 29.107 75.254 29.107 87.467 27.217 87.467"></polyline>
        <polygon id="Fill-13" fill="#FFFFFE" points="32.135 87.467 34.256 87.467 34.256 75.255 32.135 75.255"></polygon>
        <path d="M42.883,87.467 L40.548,87.467 L36.341,75.254 L38.586,75.254 L40.922,82.064 C40.922,82.064 41.154,82.777 41.743,84.863 L41.85,84.863 C42.457,82.777 42.687,82.082 42.687,82.082 L45.023,75.254 L47.108,75.254 L42.883,87.467" id="Fill-14" fill="#FFFFFE"></path>
        <polyline id="Fill-15" fill="#FFFFFE" points="56.59 87.467 49.174 87.467 49.174 75.236 56.447 75.236 56.447 77.037 51.295 77.037 51.295 80.406 55.877 80.406 55.877 82.207 51.295 82.207 51.295 85.666 56.751 85.666 56.59 87.467"></polyline>
        <path d="M65.965,87.467 L64.272,84.025 C63.915,83.295 63.469,82.582 62.702,82.582 L61.686,82.582 L61.686,87.467 L59.565,87.467 L59.565,75.254 L63.487,75.254 C66.179,75.254 67.516,76.752 67.516,78.873 C67.516,80.334 66.821,81.584 65.216,82.189 L65.216,82.225 C65.609,82.457 65.823,82.777 65.965,83.063 L68.301,87.467 L65.965,87.467 Z M63.434,77.072 L61.686,77.072 L61.686,80.799 L63.469,80.799 C64.753,80.799 65.341,80.051 65.341,78.892 C65.341,77.75 64.878,77.072 63.434,77.072 L63.434,77.072 Z" id="Fill-16" fill="#FFFFFE"></path>
        <path d="M73.789,87.662 C72.113,87.662 70.758,87.003 69.761,86.308 L70.651,84.738 C71.65,85.416 72.844,85.861 73.789,85.861 C75.197,85.861 75.893,85.076 75.893,84.168 C75.893,81.886 70.491,82.617 70.491,78.517 C70.491,76.359 72.291,75.059 74.449,75.059 C75.732,75.059 76.963,75.505 77.996,76.146 L77.23,77.679 C76.32,77.216 75.5,76.859 74.449,76.859 C73.272,76.859 72.666,77.519 72.666,78.428 C72.666,81.191 78.068,79.943 78.068,84.097 C78.068,86.164 76.124,87.662 73.789,87.662" id="Fill-17" fill="#FFFFFE"></path>
        <polygon id="Fill-18" fill="#FFFFFE" points="80.597 87.467 82.719 87.467 82.719 75.255 80.597 75.255"></polygon>
        <polyline id="Fill-19" fill="#FFFFFE" points="93.592 77.055 90.508 77.055 90.508 87.466 88.387 87.466 88.387 77.072 85.16 77.072 85.16 75.254 93.752 75.254 93.592 77.055"></polyline>
        <path d="M101.113,82.242 L101.113,87.467 L98.991,87.467 L98.991,82.242 L95.141,75.254 L97.53,75.254 L99.152,78.731 C99.152,78.731 99.384,79.176 100.026,80.531 L100.079,80.531 C100.685,79.176 100.899,78.731 100.899,78.731 L102.628,75.254 L104.964,75.254 L101.113,82.242" id="Fill-20" fill="#FFFFFE"></path>
        <path d="M117.511,87.662 C113.82,87.662 112.198,84.846 112.198,81.352 C112.198,77.679 113.838,75.059 117.511,75.059 C121.183,75.059 122.823,77.679 122.823,81.352 C122.823,84.846 121.201,87.662 117.511,87.662 M117.511,76.859 C115.408,76.859 114.373,78.678 114.373,81.334 C114.373,84.008 115.408,85.861 117.511,85.861 C119.598,85.861 120.63,84.008 120.63,81.352 C120.63,78.695 119.614,76.859 117.511,76.859" id="Fill-21" fill="#FFFFFE"></path>
        <polyline id="Fill-22" fill="#FFFFFE" points="127.669 77.037 127.669 80.407 132.163 80.407 132.163 82.207 127.669 82.207 127.669 87.466 125.549 87.466 125.549 75.236 132.679 75.236 132.679 77.037 127.669 77.037"></polyline>
        <path d="M146.064,87.662 C142.304,87.662 140.663,85.113 140.663,81.369 C140.663,77.697 142.464,75.059 146.136,75.059 C147.65,75.059 148.917,75.574 150.199,76.628 L149.096,78.053 C148.15,77.269 147.295,76.859 146.136,76.859 C143.979,76.859 142.838,78.481 142.838,81.352 C142.838,84.24 143.907,85.861 146.171,85.861 C147.259,85.861 148.4,85.363 149.398,84.453 L150.486,85.844 C149.238,86.984 147.705,87.662 146.064,87.662" id="Fill-23" fill="#FFFFFE"></path>
        <path d="M160.502,87.467 L159.486,84.524 L154.566,84.524 L153.55,87.467 L151.57,87.467 L155.867,75.433 L158.345,75.236 L162.678,87.467 L160.502,87.467 Z M158.007,80.316 C158.007,80.316 157.863,79.926 157.025,77.395 L156.99,77.395 C156.17,79.926 156.027,80.316 156.027,80.316 L155.083,83.01 L158.951,83.01 L158.007,80.316 L158.007,80.316 Z" id="Fill-24" fill="#FFFFFE"></path>
        <polyline id="Fill-25" fill="#FFFFFE" points="171.625 87.467 164.404 87.467 164.404 75.254 166.525 75.254 166.525 85.666 171.785 85.666 171.625 87.467"></polyline>
        <polygon id="Fill-26" fill="#FFFFFE" points="173.852 87.467 175.973 87.467 175.973 75.255 173.852 75.255"></polygon>
        <polyline id="Fill-27" fill="#FFFFFE" points="180.855 77.037 180.855 80.407 185.348 80.407 185.348 82.207 180.855 82.207 180.855 87.466 178.733 87.466 178.733 75.236 185.865 75.236 185.865 77.037 180.855 77.037"></polyline>
        <path d="M192.549,87.662 C188.858,87.662 187.235,84.846 187.235,81.352 C187.235,77.679 188.875,75.059 192.549,75.059 C196.221,75.059 197.86,77.679 197.86,81.352 C197.86,84.846 196.238,87.662 192.549,87.662 M192.549,76.859 C190.444,76.859 189.41,78.678 189.41,81.334 C189.41,84.008 190.444,85.861 192.549,85.861 C194.635,85.861 195.668,84.008 195.668,81.352 C195.668,78.695 194.652,76.859 192.549,76.859" id="Fill-28" fill="#FFFFFE"></path>
        <path d="M206.094,87.467 L204.401,84.025 C204.045,83.295 203.599,82.582 202.832,82.582 L201.815,82.582 L201.815,87.467 L199.694,87.467 L199.694,75.254 L203.617,75.254 C206.309,75.254 207.645,76.752 207.645,78.873 C207.645,80.334 206.952,81.584 205.346,82.189 L205.346,82.225 C205.739,82.457 205.954,82.777 206.094,83.063 L208.43,87.467 L206.094,87.467 Z M203.563,77.072 L201.815,77.072 L201.815,80.799 L203.599,80.799 C204.883,80.799 205.471,80.051 205.471,78.892 C205.471,77.75 205.008,77.072 203.563,77.072 L203.563,77.072 Z" id="Fill-29" fill="#FFFFFE"></path>
        <polyline id="Fill-30" fill="#FFFFFE" points="217.395 87.467 212.245 79.266 212.208 79.266 212.208 87.467 210.086 87.467 210.086 75.45 212.137 75.236 217.11 83.277 217.165 83.277 217.165 75.254 219.286 75.254 219.286 87.467 217.395 87.467"></polyline>
        <polygon id="Fill-31" fill="#FFFFFE" points="221.956 87.467 224.077 87.467 224.077 75.255 221.956 75.255"></polygon>
        <path d="M234.737,87.467 L233.721,84.524 L228.801,84.524 L227.786,87.467 L225.805,87.467 L230.102,75.433 L232.581,75.236 L236.913,87.467 L234.737,87.467 Z M232.243,80.316 C232.243,80.316 232.098,79.926 231.26,77.395 L231.225,77.395 C230.405,79.926 230.262,80.316 230.262,80.316 L229.317,83.01 L233.186,83.01 L232.243,80.316 L232.243,80.316 Z" id="Fill-32" fill="#FFFFFE"></path>
    </g>
</svg>